<svg id="SvgjsSvg1130" width="716" height="501" xmlns="http://www.w3.org/2000/svg" version="1.1" xmlns:xlink="http://www.w3.org/1999/xlink" xmlns:svgjs="http://svgjs.com/svgjs"><defs id="SvgjsDefs1131"><marker id="SvgjsMarker1158" markerWidth="14" markerHeight="10" refX="10" refY="5" viewBox="0 0 14 10" orient="auto" markerUnits="userSpaceOnUse" stroke-dasharray="0,0"><path id="SvgjsPath1159" d="M0,0 L14,5 L0,10 L0,0" fill="#323232" stroke="#323232" stroke-width="1"></path></marker><marker id="SvgjsMarker1162" markerWidth="14" markerHeight="10" refX="10" refY="5" viewBox="0 0 14 10" orient="auto" markerUnits="userSpaceOnUse" stroke-dasharray="0,0"><path id="SvgjsPath1163" d="M0,0 L14,5 L0,10 L0,0" fill="#323232" stroke="#323232" stroke-width="1"></path></marker><marker id="SvgjsMarker1166" markerWidth="14" markerHeight="10" refX="10" refY="5" viewBox="0 0 14 10" orient="auto" markerUnits="userSpaceOnUse" stroke-dasharray="0,0"><path id="SvgjsPath1167" d="M0,0 L14,5 L0,10 L0,0" fill="#323232" stroke="#323232" stroke-width="1"></path></marker><marker id="SvgjsMarker1170" markerWidth="14" markerHeight="10" refX="10" refY="5" viewBox="0 0 14 10" orient="auto" markerUnits="userSpaceOnUse" stroke-dasharray="0,0"><path id="SvgjsPath1171" d="M0,0 L14,5 L0,10 L0,0" fill="#323232" stroke="#323232" stroke-width="1"></path></marker><marker id="SvgjsMarker1180" markerWidth="14" markerHeight="10" refX="10" refY="5" viewBox="0 0 14 10" orient="auto" markerUnits="userSpaceOnUse" stroke-dasharray="0,0"><path id="SvgjsPath1181" d="M0,0 L14,5 L0,10 L0,0" fill="#323232" stroke="#323232" stroke-width="1"></path></marker><marker id="SvgjsMarker1190" markerWidth="14" markerHeight="10" refX="10" refY="5" viewBox="0 0 14 10" orient="auto" markerUnits="userSpaceOnUse" stroke-dasharray="0,0"><path id="SvgjsPath1191" d="M0,0 L14,5 L0,10 L0,0" fill="#323232" stroke="#323232" stroke-width="1"></path></marker><marker id="SvgjsMarker1200" markerWidth="14" markerHeight="10" refX="10" refY="5" viewBox="0 0 14 10" orient="auto" markerUnits="userSpaceOnUse" stroke-dasharray="0,0"><path id="SvgjsPath1201" d="M0,0 L14,5 L0,10 L0,0" fill="#323232" stroke="#323232" stroke-width="1"></path></marker><marker id="SvgjsMarker1210" markerWidth="14" markerHeight="10" refX="10" refY="5" viewBox="0 0 14 10" orient="auto" markerUnits="userSpaceOnUse" stroke-dasharray="0,0"><path id="SvgjsPath1211" d="M0,0 L14,5 L0,10 L0,0" fill="#323232" stroke="#323232" stroke-width="1"></path></marker><marker id="SvgjsMarker1226" markerWidth="14" markerHeight="10" refX="10" refY="5" viewBox="0 0 14 10" orient="auto" markerUnits="userSpaceOnUse" stroke-dasharray="0,0"><path id="SvgjsPath1227" d="M0,0 L14,5 L0,10 L0,0" fill="#323232" stroke="#323232" stroke-width="1"></path></marker></defs><g id="SvgjsG1132" transform="translate(206,25)"><path id="SvgjsPath1133" d="M 0 28.5C 0 -9.5 57 -9.5 57 28.5C 57 66.5 0 66.5 0 28.5Z" stroke="rgba(50,50,50,1)" stroke-width="2" fill-opacity="1" fill="#ffffff"></path><g id="SvgjsG1134"><text id="SvgjsText1135" font-family="&quot;Times New Roman&quot;" text-anchor="middle" font-size="21px" width="37px" fill="#323232" font-weight="400" align="middle" lineHeight="125%" anchor="middle" family="&quot;Times New Roman&quot;" size="21px" weight="400" font-style="" opacity="1" y="9.875" transform="rotate(0)"><tspan id="SvgjsTspan1136" dy="26" x="28.5"><tspan id="SvgjsTspan1137" style="text-decoration:;">0</tspan></tspan></text></g></g><g id="SvgjsG1138" transform="translate(143,106)"><path id="SvgjsPath1139" d="M 0 28.5C 0 -9.5 57 -9.5 57 28.5C 57 66.5 0 66.5 0 28.5Z" stroke="rgba(50,50,50,1)" stroke-width="2" fill-opacity="1" fill="#ffffff"></path><g id="SvgjsG1140"><text id="SvgjsText1141" font-family="&quot;Times New Roman&quot;" text-anchor="middle" font-size="21px" width="37px" fill="#323232" font-weight="400" align="middle" lineHeight="125%" anchor="middle" family="&quot;Times New Roman&quot;" size="21px" weight="400" font-style="" opacity="1" y="9.875" transform="rotate(0)"><tspan id="SvgjsTspan1142" dy="26" x="28.5"><tspan id="SvgjsTspan1143" style="text-decoration:;">1</tspan></tspan></text></g></g><g id="SvgjsG1144" transform="translate(206,106)"><path id="SvgjsPath1145" d="M 0 28.5C 0 -9.5 57 -9.5 57 28.5C 57 66.5 0 66.5 0 28.5Z" stroke="rgba(50,50,50,1)" stroke-width="2" fill-opacity="1" fill="#ffffff"></path><g id="SvgjsG1146"><text id="SvgjsText1147" font-family="&quot;Times New Roman&quot;" text-anchor="middle" font-size="21px" width="37px" fill="#323232" font-weight="400" align="middle" lineHeight="125%" anchor="middle" family="&quot;Times New Roman&quot;" size="21px" weight="400" font-style="" opacity="1" y="9.875" transform="rotate(0)"><tspan id="SvgjsTspan1148" dy="26" x="28.5"><tspan id="SvgjsTspan1149" style="text-decoration:;">5</tspan></tspan></text></g></g><g id="SvgjsG1150" transform="translate(269,106)"><path id="SvgjsPath1151" d="M 0 28.5C 0 -9.5 57 -9.5 57 28.5C 57 66.5 0 66.5 0 28.5Z" stroke="rgba(50,50,50,1)" stroke-width="2" fill-opacity="1" fill="#ffffff"></path><g id="SvgjsG1152"><text id="SvgjsText1153" font-family="&quot;Times New Roman&quot;" text-anchor="middle" font-size="21px" width="37px" fill="#323232" font-weight="400" align="middle" lineHeight="125%" anchor="middle" family="&quot;Times New Roman&quot;" size="21px" weight="400" font-style="" opacity="1" y="9.875" transform="rotate(0)"><tspan id="SvgjsTspan1154" dy="26" x="28.5"><tspan id="SvgjsTspan1155" style="text-decoration:;">6</tspan></tspan></text></g></g><g id="SvgjsG1156"><path id="SvgjsPath1157" d="M213.96731813021051 74.73293360190566L188.7323376926222 108.04531131796031" stroke="#323232" stroke-width="2" fill="none" marker-end="url(#SvgjsMarker1158)"></path></g><g id="SvgjsG1160"><path id="SvgjsPath1161" d="M234.5 83L234.5 102.4" stroke="#323232" stroke-width="2" fill="none" marker-end="url(#SvgjsMarker1162)"></path></g><g id="SvgjsG1164"><path id="SvgjsPath1165" d="M256.3677202740971 73.20914787001023L294.68503818870727 103.75589884342006" stroke="#323232" stroke-width="2" fill="none" marker-end="url(#SvgjsMarker1166)"></path></g><g id="SvgjsG1168"><path id="SvgjsPath1169" d="M234.5 164L234.5 200" stroke="#323232" stroke-width="2" fill="none" marker-end="url(#SvgjsMarker1170)"></path></g><g id="SvgjsG1172" transform="translate(206,197)"><path id="SvgjsPath1173" d="M 0 28.5C 0 -9.5 57 -9.5 57 28.5C 57 66.5 0 66.5 0 28.5Z" stroke="rgba(50,50,50,1)" stroke-width="2" fill-opacity="1" fill="#ffffff"></path><g id="SvgjsG1174"><text id="SvgjsText1175" font-family="&quot;Times New Roman&quot;" text-anchor="middle" font-size="21px" width="37px" fill="#323232" font-weight="400" align="middle" lineHeight="125%" anchor="middle" family="&quot;Times New Roman&quot;" size="21px" weight="400" font-style="" opacity="1" y="9.875" transform="rotate(0)"><tspan id="SvgjsTspan1176" dy="26" x="28.5"><tspan id="SvgjsTspan1177" style="text-decoration:;">4</tspan></tspan></text></g></g><g id="SvgjsG1178"><path id="SvgjsPath1179" d="M297.5 163L297.5 200" stroke="#323232" stroke-width="2" fill="none" marker-end="url(#SvgjsMarker1180)"></path></g><g id="SvgjsG1182" transform="translate(269,197)"><path id="SvgjsPath1183" d="M 0 28.5C 0 -9.5 57 -9.5 57 28.5C 57 66.5 0 66.5 0 28.5Z" stroke="rgba(50,50,50,1)" stroke-width="2" fill-opacity="1" fill="#ffffff"></path><g id="SvgjsG1184"><text id="SvgjsText1185" font-family="&quot;Times New Roman&quot;" text-anchor="middle" font-size="21px" width="37px" fill="#323232" font-weight="400" align="middle" lineHeight="125%" anchor="middle" family="&quot;Times New Roman&quot;" size="21px" weight="400" font-style="" opacity="1" y="9.875" transform="rotate(0)"><tspan id="SvgjsTspan1186" dy="26" x="28.5"><tspan id="SvgjsTspan1187" style="text-decoration:;">9</tspan></tspan></text></g></g><g id="SvgjsG1188"><path id="SvgjsPath1189" d="M282.7883074569178 251.05600748263436L258.58718321898573 285.06679932319923" stroke="#323232" stroke-width="2" fill="none" marker-end="url(#SvgjsMarker1190)"></path></g><g id="SvgjsG1192" transform="translate(228,288)"><path id="SvgjsPath1193" d="M 0 28.5C 0 -9.5 57 -9.5 57 28.5C 57 66.5 0 66.5 0 28.5Z" stroke="rgba(50,50,50,1)" stroke-width="2" fill-opacity="1" fill="#ffffff"></path><g id="SvgjsG1194"><text id="SvgjsText1195" font-family="&quot;Times New Roman&quot;" text-anchor="middle" font-size="21px" width="37px" fill="#323232" font-weight="400" align="middle" lineHeight="125%" anchor="middle" family="&quot;Times New Roman&quot;" size="21px" weight="400" font-style="" opacity="1" y="9.875" transform="rotate(0)"><tspan id="SvgjsTspan1196" dy="26" x="28.5"><tspan id="SvgjsTspan1197" style="text-decoration:;">10</tspan></tspan></text></g></g><g id="SvgjsG1198"><path id="SvgjsPath1199" d="M312.9670353598809 251.01821323630145L330.81867270442865 284.81674089569094" stroke="#323232" stroke-width="2" fill="none" marker-end="url(#SvgjsMarker1200)"></path></g><g id="SvgjsG1202" transform="translate(304,288)"><path id="SvgjsPath1203" d="M 0 28.5C 0 -9.5 57 -9.5 57 28.5C 57 66.5 0 66.5 0 28.5Z" stroke="rgba(50,50,50,1)" stroke-width="2" fill-opacity="1" fill="#ffffff"></path><g id="SvgjsG1204"><text id="SvgjsText1205" font-family="&quot;Times New Roman&quot;" text-anchor="middle" font-size="21px" width="37px" fill="#323232" font-weight="400" align="middle" lineHeight="125%" anchor="middle" family="&quot;Times New Roman&quot;" size="21px" weight="400" font-style="" opacity="1" y="9.875" transform="rotate(0)"><tspan id="SvgjsTspan1206" dy="26" x="28.5"><tspan id="SvgjsTspan1207" style="text-decoration:;">11</tspan></tspan></text></g></g><g id="SvgjsG1208"><path id="SvgjsPath1209" d="M330.5 346L330.5 379.00000190734863" stroke="#323232" stroke-width="2" fill="none" marker-end="url(#SvgjsMarker1210)"></path></g><g id="SvgjsG1212" transform="translate(304,379)"><path id="SvgjsPath1213" d="M 0 28.5C 0 -9.5 57 -9.5 57 28.5C 57 66.5 0 66.5 0 28.5Z" stroke="rgba(50,50,50,1)" stroke-width="2" fill-opacity="1" fill="#ffffff"></path><g id="SvgjsG1214"><text id="SvgjsText1215" font-family="&quot;Times New Roman&quot;" text-anchor="middle" font-size="21px" width="37px" fill="#323232" font-weight="400" align="middle" lineHeight="125%" anchor="middle" family="&quot;Times New Roman&quot;" size="21px" weight="400" font-style="" opacity="1" y="9.875" transform="rotate(0)"><tspan id="SvgjsTspan1216" dy="26" x="28.5"><tspan id="SvgjsTspan1217" style="text-decoration:;">12</tspan></tspan></text></g></g><g id="SvgjsG1218" transform="translate(402,25)"><path id="SvgjsPath1219" d="M 0 28.5C 0 -9.5 57 -9.5 57 28.5C 57 66.5 0 66.5 0 28.5Z" stroke="rgba(50,50,50,1)" stroke-width="2" fill-opacity="1" fill="#ffffff"></path><g id="SvgjsG1220"><text id="SvgjsText1221" font-family="&quot;Times New Roman&quot;" text-anchor="middle" font-size="21px" width="37px" fill="#323232" font-weight="400" align="middle" lineHeight="125%" anchor="middle" family="&quot;Times New Roman&quot;" size="21px" weight="400" font-style="" opacity="1" y="9.875" transform="rotate(0)"><tspan id="SvgjsTspan1222" dy="26" x="28.5"><tspan id="SvgjsTspan1223" style="text-decoration:;">2</tspan></tspan></text></g></g><g id="SvgjsG1224"><path id="SvgjsPath1225" d="M428.5 83L428.5 116.00000190734863" stroke="#323232" stroke-width="2" fill="none" marker-end="url(#SvgjsMarker1226)"></path></g><g id="SvgjsG1228" transform="translate(402,116)"><path id="SvgjsPath1229" d="M 0 28.5C 0 -9.5 57 -9.5 57 28.5C 57 66.5 0 66.5 0 28.5Z" stroke="rgba(50,50,50,1)" stroke-width="2" fill-opacity="1" fill="#ffffff"></path><g id="SvgjsG1230"><text id="SvgjsText1231" font-family="&quot;Times New Roman&quot;" text-anchor="middle" font-size="21px" width="37px" fill="#323232" font-weight="400" align="middle" lineHeight="125%" anchor="middle" family="&quot;Times New Roman&quot;" size="21px" weight="400" font-style="" opacity="1" y="9.875" transform="rotate(0)"><tspan id="SvgjsTspan1232" dy="26" x="28.5"><tspan id="SvgjsTspan1233" style="text-decoration:;">3</tspan></tspan></text></g></g><g id="SvgjsG1234" transform="translate(518,25)"><path id="SvgjsPath1235" d="M 0 28.5C 0 -9.5 57 -9.5 57 28.5C 57 66.5 0 66.5 0 28.5Z" stroke="rgba(50,50,50,1)" stroke-width="2" fill-opacity="1" fill="#ffffff"></path><g id="SvgjsG1236"><text id="SvgjsText1237" font-family="&quot;Times New Roman&quot;" text-anchor="middle" font-size="21px" width="37px" fill="#323232" font-weight="400" align="middle" lineHeight="125%" anchor="middle" family="&quot;Times New Roman&quot;" size="21px" weight="400" font-style="" opacity="1" y="9.875" transform="rotate(0)"><tspan id="SvgjsTspan1238" dy="26" x="28.5"><tspan id="SvgjsTspan1239" style="text-decoration:;">7</tspan></tspan></text></g></g><g id="SvgjsG1240" transform="translate(634,25)"><path id="SvgjsPath1241" d="M 0 28.5C 0 -9.5 57 -9.5 57 28.5C 57 66.5 0 66.5 0 28.5Z" stroke="rgba(50,50,50,1)" stroke-width="2" fill-opacity="1" fill="#ffffff"></path><g id="SvgjsG1242"><text id="SvgjsText1243" font-family="&quot;Times New Roman&quot;" text-anchor="middle" font-size="21px" width="37px" fill="#323232" font-weight="400" align="middle" lineHeight="125%" anchor="middle" family="&quot;Times New Roman&quot;" size="21px" weight="400" font-style="" opacity="1" y="9.875" transform="rotate(0)"><tspan id="SvgjsTspan1244" dy="26" x="28.5"><tspan id="SvgjsTspan1245" style="text-decoration:;">8</tspan></tspan></text></g></g><g id="SvgjsG1246" transform="translate(377,427)"><path id="SvgjsPath1247" d="M 0 24.5L 24.5 0L 24.5 16.17L 314 16.17L 314 32.830000000000005L 24.5 32.830000000000005L 24.5 49L 0 24.5Z" stroke="rgba(50,50,50,1)" stroke-width="2" fill-opacity="1" fill="#ffffff"></path><g id="SvgjsG1248"><text id="SvgjsText1249" font-family="微软雅黑" text-anchor="middle" font-size="13px" width="314px" fill="#323232" font-weight="400" align="middle" lineHeight="125%" anchor="middle" family="微软雅黑" size="13px" weight="400" font-style="" opacity="1" y="13.875" transform="rotate(0)"></text></g></g><g id="SvgjsG1250" transform="matrix(-1,1.2246467991473532e-16,-1.2246467991473532e-16,-1,90.00000000000003,431.5)"><path id="SvgjsPath1251" d="M 32.5 0L 65 32.5L 43.550000000000004 32.5L 43.550000000000004 355.5L 21.45 355.5L 21.45 32.5L 0 32.5L 32.5 0Z" stroke="rgba(50,50,50,1)" stroke-width="2" fill-opacity="1" fill="#ffffff"></path><g id="SvgjsG1252"><text id="SvgjsText1253" font-family="微软雅黑" text-anchor="middle" font-size="13px" width="91px" fill="#323232" font-weight="400" align="middle" lineHeight="125%" anchor="middle" family="微软雅黑" size="13px" weight="400" font-style="" opacity="1" y="184.9" transform="rotate(0)"></text></g></g></svg>