<svg id="SvgjsSvg2350" width="764.2750244140625" height="867.0000381469727" xmlns="http://www.w3.org/2000/svg" version="1.1" xmlns:xlink="http://www.w3.org/1999/xlink" xmlns:svgjs="http://svgjs.com/svgjs"><defs id="SvgjsDefs2351"><marker id="SvgjsMarker2378" markerWidth="14" markerHeight="10" refX="10" refY="5" viewBox="0 0 14 10" orient="auto" markerUnits="userSpaceOnUse" stroke-dasharray="0,0"><path id="SvgjsPath2379" d="M0,0 L14,5 L0,10 L0,0" fill="#323232" stroke="#323232" stroke-width="1"></path></marker><marker id="SvgjsMarker2386" markerWidth="14" markerHeight="10" refX="10" refY="5" viewBox="0 0 14 10" orient="auto" markerUnits="userSpaceOnUse" stroke-dasharray="0,0"><path id="SvgjsPath2387" d="M0,0 L14,5 L0,10 L0,0" fill="#323232" stroke="#323232" stroke-width="1"></path></marker><marker id="SvgjsMarker2394" markerWidth="14" markerHeight="10" refX="10" refY="5" viewBox="0 0 14 10" orient="auto" markerUnits="userSpaceOnUse" stroke-dasharray="0,0"><path id="SvgjsPath2395" d="M0,0 L14,5 L0,10 L0,0" fill="#323232" stroke="#323232" stroke-width="1"></path></marker><marker id="SvgjsMarker2398" markerWidth="14" markerHeight="10" refX="10" refY="5" viewBox="0 0 14 10" orient="auto" markerUnits="userSpaceOnUse" stroke-dasharray="0,0"><path id="SvgjsPath2399" d="M0,0 L14,5 L0,10 L0,0" fill="#323232" stroke="#323232" stroke-width="1"></path></marker><marker id="SvgjsMarker2406" markerWidth="14" markerHeight="10" refX="10" refY="5" viewBox="0 0 14 10" orient="auto" markerUnits="userSpaceOnUse" stroke-dasharray="0,0"><path id="SvgjsPath2407" d="M0,0 L14,5 L0,10 L0,0" fill="#323232" stroke="#323232" stroke-width="1"></path></marker><marker id="SvgjsMarker2414" markerWidth="14" markerHeight="10" refX="10" refY="5" viewBox="0 0 14 10" orient="auto" markerUnits="userSpaceOnUse" stroke-dasharray="0,0"><path id="SvgjsPath2415" d="M0,0 L14,5 L0,10 L0,0" fill="#323232" stroke="#323232" stroke-width="1"></path></marker><marker id="SvgjsMarker2418" markerWidth="14" markerHeight="10" refX="10" refY="5" viewBox="0 0 14 10" orient="auto" markerUnits="userSpaceOnUse" stroke-dasharray="0,0"><path id="SvgjsPath2419" d="M0,0 L14,5 L0,10 L0,0" fill="#323232" stroke="#323232" stroke-width="1"></path></marker><marker id="SvgjsMarker2422" markerWidth="14" markerHeight="10" refX="10" refY="5" viewBox="0 0 14 10" orient="auto" markerUnits="userSpaceOnUse" stroke-dasharray="0,0"><path id="SvgjsPath2423" d="M0,0 L14,5 L0,10 L0,0" fill="#323232" stroke="#323232" stroke-width="1"></path></marker><marker id="SvgjsMarker2482" markerWidth="14" markerHeight="10" refX="10" refY="5" viewBox="0 0 14 10" orient="auto" markerUnits="userSpaceOnUse" stroke-dasharray="0,0"><path id="SvgjsPath2483" d="M0,0 L14,5 L0,10 L0,0" fill="#323232" stroke="#323232" stroke-width="1"></path></marker><marker id="SvgjsMarker2490" markerWidth="14" markerHeight="10" refX="10" refY="5" viewBox="0 0 14 10" orient="auto" markerUnits="userSpaceOnUse" stroke-dasharray="0,0"><path id="SvgjsPath2491" d="M0,0 L14,5 L0,10 L0,0" fill="#323232" stroke="#323232" stroke-width="1"></path></marker><marker id="SvgjsMarker2498" markerWidth="14" markerHeight="10" refX="10" refY="5" viewBox="0 0 14 10" orient="auto" markerUnits="userSpaceOnUse" stroke-dasharray="0,0"><path id="SvgjsPath2499" d="M0,0 L14,5 L0,10 L0,0" fill="#323232" stroke="#323232" stroke-width="1"></path></marker><marker id="SvgjsMarker2502" markerWidth="14" markerHeight="10" refX="10" refY="5" viewBox="0 0 14 10" orient="auto" markerUnits="userSpaceOnUse" stroke-dasharray="0,0"><path id="SvgjsPath2503" d="M0,0 L14,5 L0,10 L0,0" fill="#323232" stroke="#323232" stroke-width="1"></path></marker><marker id="SvgjsMarker2510" markerWidth="14" markerHeight="10" refX="10" refY="5" viewBox="0 0 14 10" orient="auto" markerUnits="userSpaceOnUse" stroke-dasharray="0,0"><path id="SvgjsPath2511" d="M0,0 L14,5 L0,10 L0,0" fill="#323232" stroke="#323232" stroke-width="1"></path></marker><marker id="SvgjsMarker2518" markerWidth="14" markerHeight="10" refX="10" refY="5" viewBox="0 0 14 10" orient="auto" markerUnits="userSpaceOnUse" stroke-dasharray="0,0"><path id="SvgjsPath2519" d="M0,0 L14,5 L0,10 L0,0" fill="#323232" stroke="#323232" stroke-width="1"></path></marker><marker id="SvgjsMarker2522" markerWidth="14" markerHeight="10" refX="10" refY="5" viewBox="0 0 14 10" orient="auto" markerUnits="userSpaceOnUse" stroke-dasharray="0,0"><path id="SvgjsPath2523" d="M0,0 L14,5 L0,10 L0,0" fill="#323232" stroke="#323232" stroke-width="1"></path></marker><marker id="SvgjsMarker2526" markerWidth="14" markerHeight="10" refX="10" refY="5" viewBox="0 0 14 10" orient="auto" markerUnits="userSpaceOnUse" stroke-dasharray="0,0"><path id="SvgjsPath2527" d="M0,0 L14,5 L0,10 L0,0" fill="#323232" stroke="#323232" stroke-width="1"></path></marker></defs><g id="SvgjsG2352" transform="translate(127.86006798682229,356.3875026702881)"><path id="SvgjsPath2353" d="M 8 8Q 8 0 16 0L 490.75 0Q 498.75 0 498.75 8L 498.75 34.60000228881836Q 498.75 42.60000228881836 490.75 42.60000228881836L 490.75 42.60000228881836" stroke="rgba(50,50,50,1)" stroke-width="2" fill-opacity="1" fill="#ffffff"></path><path id="SvgjsPath2354" d="M 0 16Q 0 8 8 8L 482.75 8Q 490.75 8 490.75 16L 490.75 42.60000228881836Q 490.75 50.60000228881836 482.75 50.60000228881836L 8 50.60000228881836Q 0 50.60000228881836 0 42.60000228881836L 0 16Z" stroke="rgba(50,50,50,1)" stroke-width="2" fill-opacity="1" fill="#ffffff"></path><path id="SvgjsPath2355" d="M 0 4Q 0 0 4 0L 494.75 0Q 498.75 0 498.75 4L 498.75 46.60000228881836Q 498.75 50.60000228881836 494.75 50.60000228881836L 4 50.60000228881836Q 0 50.60000228881836 0 46.60000228881836Z" stroke="none" fill="none"></path><g id="SvgjsG2356"><text id="SvgjsText2357" font-family="微软雅黑" text-anchor="middle" font-size="13px" width="459px" fill="#323232" font-weight="400" align="middle" lineHeight="125%" anchor="middle" family="微软雅黑" size="13px" weight="400" font-style="" opacity="1" y="18.67500114440918" transform="rotate(0)"></text></g></g><g id="SvgjsG2358" transform="translate(233.6100679868223,361.3875026702881)"><path id="SvgjsPath2359" d="M 0 0L 266 0L 266 46.600006103515625L 0 46.600006103515625Z" stroke="none" fill="none"></path><g id="SvgjsG2360"><text id="SvgjsText2361" font-family="&quot;Times New Roman&quot;" text-anchor="middle" font-size="17px" width="266px" fill="#323232" font-weight="700" align="middle" lineHeight="125%" anchor="middle" family="&quot;Times New Roman&quot;" size="17px" weight="700" font-style="" opacity="1" y="8.675003051757812" transform="rotate(0)"><tspan id="SvgjsTspan2362" dy="21" x="133"><tspan id="SvgjsTspan2363" style="text-decoration:;">从后往前，求最迟发生时间</tspan></tspan></text></g></g><g id="SvgjsG2364" transform="translate(321.8600679868223,419.98750495910645)"><path id="SvgjsPath2365" d="M 19.8 0L 40.2 0L 40.2 60L 60 60L 30 90L 0 60L 19.8 60L 19.8 0Z" stroke="rgba(50,50,50,1)" stroke-width="2" fill-opacity="1" fill="#ffffff"></path><g id="SvgjsG2366"><text id="SvgjsText2367" font-family="微软雅黑" text-anchor="middle" font-size="13px" width="84px" fill="#323232" font-weight="400" align="middle" lineHeight="125%" anchor="middle" family="微软雅黑" size="13px" weight="400" font-style="" opacity="1" y="29.875" transform="rotate(0)"></text></g></g><g id="SvgjsG2368" transform="translate(167.1750030517578,175.97462710689422)"><path id="SvgjsPath2369" d="M 0 26.831024939517285C 0 -8.943674979839095 53.19642857142857 -8.943674979839095 53.19642857142857 26.831024939517285C 53.19642857142857 62.605724858873664 0 62.605724858873664 0 26.831024939517285Z" stroke="rgba(50,50,50,1)" stroke-width="2" fill-opacity="1" fill="#c8e6c9"></path><g id="SvgjsG2370"><text id="SvgjsText2371" font-family="&quot;Times New Roman&quot;" text-anchor="middle" font-size="21px" width="34px" fill="#323232" font-weight="400" align="middle" lineHeight="125%" anchor="middle" family="&quot;Times New Roman&quot;" size="21px" weight="400" font-style="" opacity="1" y="8.206024939517285" transform="rotate(0)"></text></g></g><g id="SvgjsG2372" transform="translate(261.43534139762244,76.18204312132127)"><path id="SvgjsPath2373" d="M 0 26.831024939517285C 0 -8.943674979839095 53.19642857142857 -8.943674979839095 53.19642857142857 26.831024939517285C 53.19642857142857 62.605724858873664 0 62.605724858873664 0 26.831024939517285Z" stroke="rgba(50,50,50,1)" stroke-width="2" fill-opacity="1" fill="#ffffff"></path><g id="SvgjsG2374"><text id="SvgjsText2375" font-family="&quot;Times New Roman&quot;" text-anchor="middle" font-size="21px" width="34px" fill="#323232" font-weight="400" align="middle" lineHeight="125%" anchor="middle" family="&quot;Times New Roman&quot;" size="21px" weight="400" font-style="" opacity="1" y="8.206024939517285" transform="rotate(0)"></text></g></g><g id="SvgjsG2376"><path id="SvgjsPath2377" d="M209.18817939634022 179.44594070125117L264.2825436809185 121.43296216552434" stroke="#323232" stroke-width="2" fill="none" marker-end="url(#SvgjsMarker2378)"></path></g><g id="SvgjsG2380" transform="translate(277.30094290138186,246.582587474045)"><path id="SvgjsPath2381" d="M 0 26.831024939517285C 0 -8.943674979839095 53.19642857142857 -8.943674979839095 53.19642857142857 26.831024939517285C 53.19642857142857 62.605724858873664 0 62.605724858873664 0 26.831024939517285Z" stroke="rgba(50,50,50,1)" stroke-width="2" fill-opacity="1" fill="#ffffff"></path><g id="SvgjsG2382"><text id="SvgjsText2383" font-family="&quot;Times New Roman&quot;" text-anchor="middle" font-size="21px" width="34px" fill="#323232" font-weight="400" align="middle" lineHeight="125%" anchor="middle" family="&quot;Times New Roman&quot;" size="21px" weight="400" font-style="" opacity="1" y="8.206024939517285" transform="rotate(0)"></text></g></g><g id="SvgjsG2384"><path id="SvgjsPath2385" d="M216.66625793739257 217.47575238069135L277.6741423400337 257.4967094457525" stroke="#323232" stroke-width="2" fill="none" marker-end="url(#SvgjsMarker2386)"></path></g><g id="SvgjsG2388" transform="translate(398.6261308713065,154.3215192609681)"><path id="SvgjsPath2389" d="M 0 26.831024939517285C 0 -8.943674979839095 53.19642857142857 -8.943674979839095 53.19642857142857 26.831024939517285C 53.19642857142857 62.605724858873664 0 62.605724858873664 0 26.831024939517285Z" stroke="rgba(50,50,50,1)" stroke-width="2" fill-opacity="1" fill="#ffffff"></path><g id="SvgjsG2390"><text id="SvgjsText2391" font-family="&quot;Times New Roman&quot;" text-anchor="middle" font-size="21px" width="34px" fill="#323232" font-weight="400" align="middle" lineHeight="125%" anchor="middle" family="&quot;Times New Roman&quot;" size="21px" weight="400" font-style="" opacity="1" y="8.206024939517285" transform="rotate(0)"></text></g></g><g id="SvgjsG2392"><path id="SvgjsPath2393" d="M326.9803590536802 257.9293403666527L402.5470559226966 201.17169806380923" stroke="#323232" stroke-width="2" fill="none" marker-end="url(#SvgjsMarker2394)"></path></g><g id="SvgjsG2396"><path id="SvgjsPath2397" d="M314.70065375578815 109.58342253639447L404.4087750007093 159.22886517353916" stroke="#323232" stroke-width="2" fill="none" marker-end="url(#SvgjsMarker2398)"></path></g><g id="SvgjsG2400" transform="translate(502.21917598408857,53.58749580383301)"><path id="SvgjsPath2401" d="M 0 26.831024939517285C 0 -8.943674979839095 53.19642857142857 -8.943674979839095 53.19642857142857 26.831024939517285C 53.19642857142857 62.605724858873664 0 62.605724858873664 0 26.831024939517285Z" stroke="rgba(50,50,50,1)" stroke-width="2" fill-opacity="1" fill="#ffffff"></path><g id="SvgjsG2402"><text id="SvgjsText2403" font-family="&quot;Times New Roman&quot;" text-anchor="middle" font-size="21px" width="34px" fill="#323232" font-weight="400" align="middle" lineHeight="125%" anchor="middle" family="&quot;Times New Roman&quot;" size="21px" weight="400" font-style="" opacity="1" y="8.206024939517285" transform="rotate(0)"></text></g></g><g id="SvgjsG2404"><path id="SvgjsPath2405" d="M311.95354941241305 90.57233576590953L498.62429143461577 80.61036723396721" stroke="#323232" stroke-width="2" fill="none" marker-end="url(#SvgjsMarker2406)"></path></g><g id="SvgjsG2408" transform="translate(610.4785744803293,162.79447450502607)"><path id="SvgjsPath2409" d="M 0 26.831024939517285C 0 -8.943674979839095 53.19642857142857 -8.943674979839095 53.19642857142857 26.831024939517285C 53.19642857142857 62.605724858873664 0 62.605724858873664 0 26.831024939517285Z" stroke="rgba(50,50,50,1)" stroke-width="2" fill-opacity="1" fill="#ffe0b2"></path><g id="SvgjsG2410"><text id="SvgjsText2411" font-family="&quot;Times New Roman&quot;" text-anchor="middle" font-size="21px" width="34px" fill="#323232" font-weight="400" align="middle" lineHeight="125%" anchor="middle" family="&quot;Times New Roman&quot;" size="21px" weight="400" font-style="" opacity="1" y="8.206024939517285" transform="rotate(0)"></text></g></g><g id="SvgjsG2412"><path id="SvgjsPath2413" d="M331.46602301394967 273.16518900112203L609.6662064002334 201.8170973880724" stroke="#323232" stroke-width="2" fill="none" marker-end="url(#SvgjsMarker2414)"></path></g><g id="SvgjsG2416"><path id="SvgjsPath2417" d="M452.8211364621127 181.20587277041656L606.8836972105698 189.43351659279122" stroke="#323232" stroke-width="2" fill="none" marker-end="url(#SvgjsMarker2418)"></path></g><g id="SvgjsG2420"><path id="SvgjsPath2421" d="M551.9326124947972 95.06827319377783L617.7860058838901 166.6549766745221" stroke="#323232" stroke-width="2" fill="none" marker-end="url(#SvgjsMarker2422)"></path></g><g id="SvgjsG2424" transform="translate(93.36331474006943,155.96683056871916)"><path id="SvgjsPath2425" d="M 6.714285714285722 0L 67.14285714285722 0L 67.14285714285722 50.37142726353204L 6.714285714285722 50.37142726353204L 6.714285714285722 40.297141810825636L 0 40.297141810825636L 0 30.222856358119223L 6.714285714285722 30.222856358119223L 6.714285714285722 20.148570905412818L 0 20.148570905412818L 0 10.074285452706409L 6.714285714285722 10.074285452706409L 6.714285714285722 0Z" stroke="rgba(50,50,50,1)" stroke-width="2" fill-opacity="1" fill="#ffffff"></path><path id="SvgjsPath2426" d="M 6.714285714285722 40.297141810825636L 13.428571428571445 40.297141810825636L 13.428571428571445 30.222856358119223L 6.714285714285722 30.222856358119223M 6.714285714285722 20.148570905412818L 13.428571428571445 20.148570905412818L 13.428571428571445 10.074285452706409L 6.714285714285722 10.074285452706409" stroke="rgba(50,50,50,1)" stroke-width="2" fill="none"></path><path id="SvgjsPath2427" d="M 6.714285714285722 0L 67.14285714285722 0L 67.14285714285722 50.37142726353204L 6.714285714285722 50.37142726353204L 6.714285714285722 40.297141810825636L 0 40.297141810825636L 0 30.222856358119223L 6.714285714285722 30.222856358119223L 6.714285714285722 20.148570905412818L 0 20.148570905412818L 0 10.074285452706409L 6.714285714285722 10.074285452706409L 6.714285714285722 0Z" stroke="none" fill="none"></path><g id="SvgjsG2428"><text id="SvgjsText2429" font-family="微软雅黑" text-anchor="middle" font-size="13px" width="49px" fill="#323232" font-weight="700" align="middle" lineHeight="125%" anchor="middle" family="微软雅黑" size="13px" weight="700" font-style="" opacity="1" y="14.56071363176602" transform="rotate(0)"><tspan id="SvgjsTspan2430" dy="16" x="37.89285714285715"><tspan id="SvgjsTspan2431" style="text-decoration:;">ve()=0</tspan></tspan></text></g></g><g id="SvgjsG2432" transform="translate(203.10357448032926,46.14305135938855)"><path id="SvgjsPath2433" d="M 6.714285714285722 0L 67.14285714285722 0L 67.14285714285722 50.37142726353204L 6.714285714285722 50.37142726353204L 6.714285714285722 40.297141810825636L 0 40.297141810825636L 0 30.222856358119223L 6.714285714285722 30.222856358119223L 6.714285714285722 20.148570905412818L 0 20.148570905412818L 0 10.074285452706409L 6.714285714285722 10.074285452706409L 6.714285714285722 0Z" stroke="rgba(50,50,50,1)" stroke-width="2" fill-opacity="1" fill="#ffffff"></path><path id="SvgjsPath2434" d="M 6.714285714285722 40.297141810825636L 13.428571428571445 40.297141810825636L 13.428571428571445 30.222856358119223L 6.714285714285722 30.222856358119223M 6.714285714285722 20.148570905412818L 13.428571428571445 20.148570905412818L 13.428571428571445 10.074285452706409L 6.714285714285722 10.074285452706409" stroke="rgba(50,50,50,1)" stroke-width="2" fill="none"></path><path id="SvgjsPath2435" d="M 6.714285714285722 0L 67.14285714285722 0L 67.14285714285722 50.37142726353204L 6.714285714285722 50.37142726353204L 6.714285714285722 40.297141810825636L 0 40.297141810825636L 0 30.222856358119223L 6.714285714285722 30.222856358119223L 6.714285714285722 20.148570905412818L 0 20.148570905412818L 0 10.074285452706409L 6.714285714285722 10.074285452706409L 6.714285714285722 0Z" stroke="none" fill="none"></path><g id="SvgjsG2436"><text id="SvgjsText2437" font-family="微软雅黑" text-anchor="middle" font-size="13px" width="49px" fill="#323232" font-weight="700" align="middle" lineHeight="125%" anchor="middle" family="微软雅黑" size="13px" weight="700" font-style="" opacity="1" y="14.56071363176602" transform="rotate(0)"><tspan id="SvgjsTspan2438" dy="16" x="37.89285714285715"><tspan id="SvgjsTspan2439" style="text-decoration:;">ve()=3</tspan></tspan></text></g></g><g id="SvgjsG2440" transform="translate(210.5321459089006,277.11682027308336)"><path id="SvgjsPath2441" d="M 6.714285714285722 0L 67.14285714285722 0L 67.14285714285722 50.37142726353204L 6.714285714285722 50.37142726353204L 6.714285714285722 40.297141810825636L 0 40.297141810825636L 0 30.222856358119223L 6.714285714285722 30.222856358119223L 6.714285714285722 20.148570905412818L 0 20.148570905412818L 0 10.074285452706409L 6.714285714285722 10.074285452706409L 6.714285714285722 0Z" stroke="rgba(50,50,50,1)" stroke-width="2" fill-opacity="1" fill="#ffffff"></path><path id="SvgjsPath2442" d="M 6.714285714285722 40.297141810825636L 13.428571428571445 40.297141810825636L 13.428571428571445 30.222856358119223L 6.714285714285722 30.222856358119223M 6.714285714285722 20.148570905412818L 13.428571428571445 20.148570905412818L 13.428571428571445 10.074285452706409L 6.714285714285722 10.074285452706409" stroke="rgba(50,50,50,1)" stroke-width="2" fill="none"></path><path id="SvgjsPath2443" d="M 6.714285714285722 0L 67.14285714285722 0L 67.14285714285722 50.37142726353204L 6.714285714285722 50.37142726353204L 6.714285714285722 40.297141810825636L 0 40.297141810825636L 0 30.222856358119223L 6.714285714285722 30.222856358119223L 6.714285714285722 20.148570905412818L 0 20.148570905412818L 0 10.074285452706409L 6.714285714285722 10.074285452706409L 6.714285714285722 0Z" stroke="none" fill="none"></path><g id="SvgjsG2444"><text id="SvgjsText2445" font-family="微软雅黑" text-anchor="middle" font-size="13px" width="49px" fill="#323232" font-weight="700" align="middle" lineHeight="125%" anchor="middle" family="微软雅黑" size="13px" weight="700" font-style="" opacity="1" y="14.56071363176602" transform="rotate(0)"><tspan id="SvgjsTspan2446" dy="16" x="37.89285714285715"><tspan id="SvgjsTspan2447" style="text-decoration:;">ve()=2</tspan></tspan></text></g></g><g id="SvgjsG2448" transform="translate(436.5321459089005,104.38954754581084)"><path id="SvgjsPath2449" d="M 6.714285714285722 0L 67.14285714285722 0L 67.14285714285722 50.37142726353204L 6.714285714285722 50.37142726353204L 6.714285714285722 40.297141810825636L 0 40.297141810825636L 0 30.222856358119223L 6.714285714285722 30.222856358119223L 6.714285714285722 20.148570905412818L 0 20.148570905412818L 0 10.074285452706409L 6.714285714285722 10.074285452706409L 6.714285714285722 0Z" stroke="rgba(50,50,50,1)" stroke-width="2" fill-opacity="1" fill="#ffffff"></path><path id="SvgjsPath2450" d="M 6.714285714285722 40.297141810825636L 13.428571428571445 40.297141810825636L 13.428571428571445 30.222856358119223L 6.714285714285722 30.222856358119223M 6.714285714285722 20.148570905412818L 13.428571428571445 20.148570905412818L 13.428571428571445 10.074285452706409L 6.714285714285722 10.074285452706409" stroke="rgba(50,50,50,1)" stroke-width="2" fill="none"></path><path id="SvgjsPath2451" d="M 6.714285714285722 0L 67.14285714285722 0L 67.14285714285722 50.37142726353204L 6.714285714285722 50.37142726353204L 6.714285714285722 40.297141810825636L 0 40.297141810825636L 0 30.222856358119223L 6.714285714285722 30.222856358119223L 6.714285714285722 20.148570905412818L 0 20.148570905412818L 0 10.074285452706409L 6.714285714285722 10.074285452706409L 6.714285714285722 0Z" stroke="none" fill="none"></path><g id="SvgjsG2452"><text id="SvgjsText2453" font-family="微软雅黑" text-anchor="middle" font-size="13px" width="49px" fill="#323232" font-weight="700" align="middle" lineHeight="125%" anchor="middle" family="微软雅黑" size="13px" weight="700" font-style="" opacity="1" y="14.56071363176602" transform="rotate(0)"><tspan id="SvgjsTspan2454" dy="16" x="37.89285714285715"><tspan id="SvgjsTspan2455" style="text-decoration:;">ve()=6</tspan></tspan></text></g></g><g id="SvgjsG2456" transform="translate(559.4672108439651,25.005271522663577)"><path id="SvgjsPath2457" d="M 6.714285714285722 0L 67.14285714285722 0L 67.14285714285722 50.37142726353204L 6.714285714285722 50.37142726353204L 6.714285714285722 40.297141810825636L 0 40.297141810825636L 0 30.222856358119223L 6.714285714285722 30.222856358119223L 6.714285714285722 20.148570905412818L 0 20.148570905412818L 0 10.074285452706409L 6.714285714285722 10.074285452706409L 6.714285714285722 0Z" stroke="rgba(50,50,50,1)" stroke-width="2" fill-opacity="1" fill="#ffffff"></path><path id="SvgjsPath2458" d="M 6.714285714285722 40.297141810825636L 13.428571428571445 40.297141810825636L 13.428571428571445 30.222856358119223L 6.714285714285722 30.222856358119223M 6.714285714285722 20.148570905412818L 13.428571428571445 20.148570905412818L 13.428571428571445 10.074285452706409L 6.714285714285722 10.074285452706409" stroke="rgba(50,50,50,1)" stroke-width="2" fill="none"></path><path id="SvgjsPath2459" d="M 6.714285714285722 0L 67.14285714285722 0L 67.14285714285722 50.37142726353204L 6.714285714285722 50.37142726353204L 6.714285714285722 40.297141810825636L 0 40.297141810825636L 0 30.222856358119223L 6.714285714285722 30.222856358119223L 6.714285714285722 20.148570905412818L 0 20.148570905412818L 0 10.074285452706409L 6.714285714285722 10.074285452706409L 6.714285714285722 0Z" stroke="none" fill="none"></path><g id="SvgjsG2460"><text id="SvgjsText2461" font-family="微软雅黑" text-anchor="middle" font-size="13px" width="49px" fill="#323232" font-weight="700" align="middle" lineHeight="125%" anchor="middle" family="微软雅黑" size="13px" weight="700" font-style="" opacity="1" y="14.56071363176602" transform="rotate(0)"><tspan id="SvgjsTspan2462" dy="16" x="37.89285714285715"><tspan id="SvgjsTspan2463" style="text-decoration:;">ve()=6</tspan></tspan></text></g></g><g id="SvgjsG2464" transform="translate(608.2821459089006,217.85650412066252)"><path id="SvgjsPath2465" d="M 6.714285714285722 0L 67.14285714285722 0L 67.14285714285722 50.37142726353204L 6.714285714285722 50.37142726353204L 6.714285714285722 40.297141810825636L 0 40.297141810825636L 0 30.222856358119223L 6.714285714285722 30.222856358119223L 6.714285714285722 20.148570905412818L 0 20.148570905412818L 0 10.074285452706409L 6.714285714285722 10.074285452706409L 6.714285714285722 0Z" stroke="rgba(50,50,50,1)" stroke-width="2" fill-opacity="1" fill="#ffffff"></path><path id="SvgjsPath2466" d="M 6.714285714285722 40.297141810825636L 13.428571428571445 40.297141810825636L 13.428571428571445 30.222856358119223L 6.714285714285722 30.222856358119223M 6.714285714285722 20.148570905412818L 13.428571428571445 20.148570905412818L 13.428571428571445 10.074285452706409L 6.714285714285722 10.074285452706409" stroke="rgba(50,50,50,1)" stroke-width="2" fill="none"></path><path id="SvgjsPath2467" d="M 6.714285714285722 0L 67.14285714285722 0L 67.14285714285722 50.37142726353204L 6.714285714285722 50.37142726353204L 6.714285714285722 40.297141810825636L 0 40.297141810825636L 0 30.222856358119223L 6.714285714285722 30.222856358119223L 6.714285714285722 20.148570905412818L 0 20.148570905412818L 0 10.074285452706409L 6.714285714285722 10.074285452706409L 6.714285714285722 0Z" stroke="none" fill="none"></path><g id="SvgjsG2468"><text id="SvgjsText2469" font-family="微软雅黑" text-anchor="middle" font-size="13px" width="49px" fill="#323232" font-weight="700" align="middle" lineHeight="125%" anchor="middle" family="微软雅黑" size="13px" weight="700" font-style="" opacity="1" y="14.56071363176602" transform="rotate(0)"><tspan id="SvgjsTspan2470" dy="16" x="37.89285714285715"><tspan id="SvgjsTspan2471" style="text-decoration:;">ve()=8</tspan></tspan></text></g></g><g id="SvgjsG2472" transform="translate(142.1750030517578,673.9568605433371)"><path id="SvgjsPath2473" d="M 0 26.831024939517285C 0 -8.943674979839095 53.19642857142857 -8.943674979839095 53.19642857142857 26.831024939517285C 53.19642857142857 62.605724858873664 0 62.605724858873664 0 26.831024939517285Z" stroke="rgba(50,50,50,1)" stroke-width="2" fill-opacity="1" fill="#c8e6c9"></path><g id="SvgjsG2474"><text id="SvgjsText2475" font-family="&quot;Times New Roman&quot;" text-anchor="middle" font-size="21px" width="34px" fill="#323232" font-weight="400" align="middle" lineHeight="125%" anchor="middle" family="&quot;Times New Roman&quot;" size="21px" weight="400" font-style="" opacity="1" y="8.206024939517285" transform="rotate(0)"></text></g></g><g id="SvgjsG2476" transform="translate(236.43534139762244,574.1642765577642)"><path id="SvgjsPath2477" d="M 0 26.831024939517285C 0 -8.943674979839095 53.19642857142857 -8.943674979839095 53.19642857142857 26.831024939517285C 53.19642857142857 62.605724858873664 0 62.605724858873664 0 26.831024939517285Z" stroke="rgba(50,50,50,1)" stroke-width="2" fill-opacity="1" fill="#ffffff"></path><g id="SvgjsG2478"><text id="SvgjsText2479" font-family="&quot;Times New Roman&quot;" text-anchor="middle" font-size="21px" width="34px" fill="#323232" font-weight="400" align="middle" lineHeight="125%" anchor="middle" family="&quot;Times New Roman&quot;" size="21px" weight="400" font-style="" opacity="1" y="8.206024939517285" transform="rotate(0)"></text></g></g><g id="SvgjsG2480"><path id="SvgjsPath2481" d="M184.18817939634022 677.428174137694L239.28254368091848 619.4151956019673" stroke="#323232" stroke-width="2" fill="none" marker-end="url(#SvgjsMarker2482)"></path></g><g id="SvgjsG2484" transform="translate(252.30094290138186,744.5648209104879)"><path id="SvgjsPath2485" d="M 0 26.831024939517285C 0 -8.943674979839095 53.19642857142857 -8.943674979839095 53.19642857142857 26.831024939517285C 53.19642857142857 62.605724858873664 0 62.605724858873664 0 26.831024939517285Z" stroke="rgba(50,50,50,1)" stroke-width="2" fill-opacity="1" fill="#ffffff"></path><g id="SvgjsG2486"><text id="SvgjsText2487" font-family="&quot;Times New Roman&quot;" text-anchor="middle" font-size="21px" width="34px" fill="#323232" font-weight="400" align="middle" lineHeight="125%" anchor="middle" family="&quot;Times New Roman&quot;" size="21px" weight="400" font-style="" opacity="1" y="8.206024939517285" transform="rotate(0)"></text></g></g><g id="SvgjsG2488"><path id="SvgjsPath2489" d="M191.66625793739257 715.4579858171342L252.6741423400337 755.4789428821954" stroke="#323232" stroke-width="2" fill="none" marker-end="url(#SvgjsMarker2490)"></path></g><g id="SvgjsG2492" transform="translate(373.6261308713065,652.303752697411)"><path id="SvgjsPath2493" d="M 0 26.831024939517285C 0 -8.943674979839095 53.19642857142857 -8.943674979839095 53.19642857142857 26.831024939517285C 53.19642857142857 62.605724858873664 0 62.605724858873664 0 26.831024939517285Z" stroke="rgba(50,50,50,1)" stroke-width="2" fill-opacity="1" fill="#ffffff"></path><g id="SvgjsG2494"><text id="SvgjsText2495" font-family="&quot;Times New Roman&quot;" text-anchor="middle" font-size="21px" width="34px" fill="#323232" font-weight="400" align="middle" lineHeight="125%" anchor="middle" family="&quot;Times New Roman&quot;" size="21px" weight="400" font-style="" opacity="1" y="8.206024939517285" transform="rotate(0)"></text></g></g><g id="SvgjsG2496"><path id="SvgjsPath2497" d="M301.9803590536802 755.9115738030955L377.5470559226966 699.153931500252" stroke="#323232" stroke-width="2" fill="none" marker-end="url(#SvgjsMarker2498)"></path></g><g id="SvgjsG2500"><path id="SvgjsPath2501" d="M289.70065375578815 607.5656559728374L379.4087750007093 657.2110986099821" stroke="#323232" stroke-width="2" fill="none" marker-end="url(#SvgjsMarker2502)"></path></g><g id="SvgjsG2504" transform="translate(477.21917598408857,551.5697292402758)"><path id="SvgjsPath2505" d="M 0 26.831024939517285C 0 -8.943674979839095 53.19642857142857 -8.943674979839095 53.19642857142857 26.831024939517285C 53.19642857142857 62.605724858873664 0 62.605724858873664 0 26.831024939517285Z" stroke="rgba(50,50,50,1)" stroke-width="2" fill-opacity="1" fill="#ffffff"></path><g id="SvgjsG2506"><text id="SvgjsText2507" font-family="&quot;Times New Roman&quot;" text-anchor="middle" font-size="21px" width="34px" fill="#323232" font-weight="400" align="middle" lineHeight="125%" anchor="middle" family="&quot;Times New Roman&quot;" size="21px" weight="400" font-style="" opacity="1" y="8.206024939517285" transform="rotate(0)"></text></g></g><g id="SvgjsG2508"><path id="SvgjsPath2509" d="M286.95354941241305 588.5545692023524L473.62429143461577 578.5926006704101" stroke="#323232" stroke-width="2" fill="none" marker-end="url(#SvgjsMarker2510)"></path></g><g id="SvgjsG2512" transform="translate(585.4785744803293,660.7767079414689)"><path id="SvgjsPath2513" d="M 0 26.831024939517285C 0 -8.943674979839095 53.19642857142857 -8.943674979839095 53.19642857142857 26.831024939517285C 53.19642857142857 62.605724858873664 0 62.605724858873664 0 26.831024939517285Z" stroke="rgba(50,50,50,1)" stroke-width="2" fill-opacity="1" fill="#ffe0b2"></path><g id="SvgjsG2514"><text id="SvgjsText2515" font-family="&quot;Times New Roman&quot;" text-anchor="middle" font-size="21px" width="34px" fill="#323232" font-weight="400" align="middle" lineHeight="125%" anchor="middle" family="&quot;Times New Roman&quot;" size="21px" weight="400" font-style="" opacity="1" y="8.206024939517285" transform="rotate(0)"></text></g></g><g id="SvgjsG2516"><path id="SvgjsPath2517" d="M306.4660230139497 771.1474224375648L584.6662064002334 699.7993308245152" stroke="#323232" stroke-width="2" fill="none" marker-end="url(#SvgjsMarker2518)"></path></g><g id="SvgjsG2520"><path id="SvgjsPath2521" d="M427.8211364621127 679.1881062068594L581.8836972105698 687.4157500292341" stroke="#323232" stroke-width="2" fill="none" marker-end="url(#SvgjsMarker2522)"></path></g><g id="SvgjsG2524"><path id="SvgjsPath2525" d="M526.9326124947972 593.0505066302208L592.7860058838901 664.6372101109649" stroke="#323232" stroke-width="2" fill="none" marker-end="url(#SvgjsMarker2526)"></path></g><g id="SvgjsG2528" transform="translate(25.00617188292665,627.8263264367988)"><path id="SvgjsPath2529" d="M 14.216883116883118 0L 142.16883116883116 0L 142.16883116883116 43.83844209835365L 14.216883116883118 43.83844209835365L 14.216883116883118 35.07075367868293L 0 35.07075367868293L 0 26.30306525901219L 14.216883116883118 26.30306525901219L 14.216883116883118 17.535376839341463L 0 17.535376839341463L 0 8.767688419670732L 14.216883116883118 8.767688419670732L 14.216883116883118 0Z" stroke="rgba(50,50,50,1)" stroke-width="2" fill-opacity="1" fill="#ffffff"></path><path id="SvgjsPath2530" d="M 14.216883116883118 35.07075367868293L 28.433766233766235 35.07075367868293L 28.433766233766235 26.30306525901219L 14.216883116883118 26.30306525901219M 14.216883116883118 17.535376839341463L 28.433766233766235 17.535376839341463L 28.433766233766235 8.767688419670732L 14.216883116883118 8.767688419670732" stroke="rgba(50,50,50,1)" stroke-width="2" fill="none"></path><path id="SvgjsPath2531" d="M 14.216883116883118 0L 142.16883116883116 0L 142.16883116883116 43.83844209835365L 14.216883116883118 43.83844209835365L 14.216883116883118 35.07075367868293L 0 35.07075367868293L 0 26.30306525901219L 14.216883116883118 26.30306525901219L 14.216883116883118 17.535376839341463L 0 17.535376839341463L 0 8.767688419670732L 14.216883116883118 8.767688419670732L 14.216883116883118 0Z" stroke="none" fill="none"></path><g id="SvgjsG2532"><text id="SvgjsText2533" font-family="微软雅黑" text-anchor="middle" font-size="13px" width="115px" fill="#323232" font-weight="700" align="middle" lineHeight="125%" anchor="middle" family="微软雅黑" size="13px" weight="700" font-style="" opacity="1" y="11.294221049176826" transform="rotate(0)"><tspan id="SvgjsTspan2534" dy="16" x="80.2711038961039"><tspan id="SvgjsTspan2535" style="text-decoration:;">ve()=0, vl()=0</tspan></tspan></text></g></g><g id="SvgjsG2536" transform="translate(205.1205772144374,522.9875049591064)"><path id="SvgjsPath2537" d="M 12.537679425837304 0L 125.37679425837302 0L 125.37679425837302 46.66222130768415L 12.537679425837304 46.66222130768415L 12.537679425837304 37.32977704614732L 0 37.32977704614732L 0 27.99733278461049L 12.537679425837304 27.99733278461049L 12.537679425837304 18.66488852307366L 0 18.66488852307366L 0 9.33244426153683L 12.537679425837304 9.33244426153683L 12.537679425837304 0Z" stroke="rgba(50,50,50,1)" stroke-width="2" fill-opacity="1" fill="#ffffff"></path><path id="SvgjsPath2538" d="M 12.537679425837304 37.32977704614732L 25.075358851674608 37.32977704614732L 25.075358851674608 27.99733278461049L 12.537679425837304 27.99733278461049M 12.537679425837304 18.66488852307366L 25.075358851674608 18.66488852307366L 25.075358851674608 9.33244426153683L 12.537679425837304 9.33244426153683" stroke="rgba(50,50,50,1)" stroke-width="2" fill="none"></path><path id="SvgjsPath2539" d="M 12.537679425837304 0L 125.37679425837302 0L 125.37679425837302 46.66222130768415L 12.537679425837304 46.66222130768415L 12.537679425837304 37.32977704614732L 0 37.32977704614732L 0 27.99733278461049L 12.537679425837304 27.99733278461049L 12.537679425837304 18.66488852307366L 0 18.66488852307366L 0 9.33244426153683L 12.537679425837304 9.33244426153683L 12.537679425837304 0Z" stroke="none" fill="none"></path><g id="SvgjsG2540"><text id="SvgjsText2541" font-family="微软雅黑" text-anchor="middle" font-size="13px" width="100px" fill="#323232" font-weight="700" align="middle" lineHeight="125%" anchor="middle" family="微软雅黑" size="13px" weight="700" font-style="" opacity="1" y="12.706110653842074" transform="rotate(0)"><tspan id="SvgjsTspan2542" dy="16" x="70.67209928229663"><tspan id="SvgjsTspan2543" style="text-decoration:;">ve()=3, vl()=4</tspan></tspan></text></g></g><g id="SvgjsG2544" transform="translate(289.631769969051,795.0030980354566)"><path id="SvgjsPath2545" d="M 15.39565960355426 0L 153.9565960355426 0L 153.9565960355426 46.784408068059065L 15.39565960355426 46.784408068059065L 15.39565960355426 37.42752645444725L 0 37.42752645444725L 0 28.07064484083544L 15.39565960355426 28.07064484083544L 15.39565960355426 18.713763227223627L 0 18.713763227223627L 0 9.356881613611813L 15.39565960355426 9.356881613611813L 15.39565960355426 0Z" stroke="rgba(50,50,50,1)" stroke-width="2" fill-opacity="1" fill="#ffffff"></path><path id="SvgjsPath2546" d="M 15.39565960355426 37.42752645444725L 30.79131920710852 37.42752645444725L 30.79131920710852 28.07064484083544L 15.39565960355426 28.07064484083544M 15.39565960355426 18.713763227223627L 30.79131920710852 18.713763227223627L 30.79131920710852 9.356881613611813L 15.39565960355426 9.356881613611813" stroke="rgba(50,50,50,1)" stroke-width="2" fill="none"></path><path id="SvgjsPath2547" d="M 15.39565960355426 0L 153.9565960355426 0L 153.9565960355426 46.784408068059065L 15.39565960355426 46.784408068059065L 15.39565960355426 37.42752645444725L 0 37.42752645444725L 0 28.07064484083544L 15.39565960355426 28.07064484083544L 15.39565960355426 18.713763227223627L 0 18.713763227223627L 0 9.356881613611813L 15.39565960355426 9.356881613611813L 15.39565960355426 0Z" stroke="none" fill="none"></path><g id="SvgjsG2548"><text id="SvgjsText2549" font-family="微软雅黑" text-anchor="middle" font-size="13px" width="125px" fill="#323232" font-weight="700" align="middle" lineHeight="125%" anchor="middle" family="微软雅黑" size="13px" weight="700" font-style="" opacity="1" y="12.767204034029533" transform="rotate(0)"><tspan id="SvgjsTspan2550" dy="16" x="86.74457450444282"><tspan id="SvgjsTspan2551" style="text-decoration:;">ve()=2, vl()=2</tspan></tspan></text></g></g><g id="SvgjsG2552" transform="translate(403.0748562763914,614.6140366347489)"><path id="SvgjsPath2553" d="M 12.734074827912572 0L 127.3407482791257 0L 127.3407482791257 47.41572512126186L 12.734074827912572 47.41572512126186L 12.734074827912572 37.932580097009485L 0 37.932580097009485L 0 28.449435072757115L 12.734074827912572 28.449435072757115L 12.734074827912572 18.966290048504742L 0 18.966290048504742L 0 9.483145024252371L 12.734074827912572 9.483145024252371L 12.734074827912572 0Z" stroke="rgba(50,50,50,1)" stroke-width="2" fill-opacity="1" fill="#ffffff"></path><path id="SvgjsPath2554" d="M 12.734074827912572 37.932580097009485L 25.468149655825144 37.932580097009485L 25.468149655825144 28.449435072757115L 12.734074827912572 28.449435072757115M 12.734074827912572 18.966290048504742L 25.468149655825144 18.966290048504742L 25.468149655825144 9.483145024252371L 12.734074827912572 9.483145024252371" stroke="rgba(50,50,50,1)" stroke-width="2" fill="none"></path><path id="SvgjsPath2555" d="M 12.734074827912572 0L 127.3407482791257 0L 127.3407482791257 47.41572512126186L 12.734074827912572 47.41572512126186L 12.734074827912572 37.932580097009485L 0 37.932580097009485L 0 28.449435072757115L 12.734074827912572 28.449435072757115L 12.734074827912572 18.966290048504742L 0 18.966290048504742L 0 9.483145024252371L 12.734074827912572 9.483145024252371L 12.734074827912572 0Z" stroke="none" fill="none"></path><g id="SvgjsG2556"><text id="SvgjsText2557" font-family="微软雅黑" text-anchor="middle" font-size="13px" width="102px" fill="#323232" font-weight="700" align="middle" lineHeight="125%" anchor="middle" family="微软雅黑" size="13px" weight="700" font-style="" opacity="1" y="13.082862560630929" transform="rotate(0)"><tspan id="SvgjsTspan2558" dy="16" x="71.91759353489071"><tspan id="SvgjsTspan2559" style="text-decoration:;">ve()=6, vl()=6</tspan></tspan></text></g></g><g id="SvgjsG2560" transform="translate(530.4156045555171,538.364275413355)"><path id="SvgjsPath2561" d="M 14.640778915603494 0L 146.40778915603494 0L 146.40778915603494 47.80000114440918L 14.640778915603494 47.80000114440918L 14.640778915603494 38.24000091552735L 0 38.24000091552735L 0 28.680000686645506L 14.640778915603494 28.680000686645506L 14.640778915603494 19.120000457763673L 0 19.120000457763673L 0 9.560000228881837L 14.640778915603494 9.560000228881837L 14.640778915603494 0Z" stroke="rgba(50,50,50,1)" stroke-width="2" fill-opacity="1" fill="#ffffff"></path><path id="SvgjsPath2562" d="M 14.640778915603494 38.24000091552735L 29.28155783120699 38.24000091552735L 29.28155783120699 28.680000686645506L 14.640778915603494 28.680000686645506M 14.640778915603494 19.120000457763673L 29.28155783120699 19.120000457763673L 29.28155783120699 9.560000228881837L 14.640778915603494 9.560000228881837" stroke="rgba(50,50,50,1)" stroke-width="2" fill="none"></path><path id="SvgjsPath2563" d="M 14.640778915603494 0L 146.40778915603494 0L 146.40778915603494 47.80000114440918L 14.640778915603494 47.80000114440918L 14.640778915603494 38.24000091552735L 0 38.24000091552735L 0 28.680000686645506L 14.640778915603494 28.680000686645506L 14.640778915603494 19.120000457763673L 0 19.120000457763673L 0 9.560000228881837L 14.640778915603494 9.560000228881837L 14.640778915603494 0Z" stroke="none" fill="none"></path><g id="SvgjsG2564"><text id="SvgjsText2565" font-family="微软雅黑" text-anchor="middle" font-size="13px" width="119px" fill="#323232" font-weight="700" align="middle" lineHeight="125%" anchor="middle" family="微软雅黑" size="13px" weight="700" font-style="" opacity="1" y="13.27500057220459" transform="rotate(0)"><tspan id="SvgjsTspan2566" dy="16" x="82.80097364450437"><tspan id="SvgjsTspan2567" style="text-decoration:;">ve()=6, vl()=7</tspan></tspan></text></g></g><g id="SvgjsG2568" transform="translate(583.2821459089006,715.8387375571053)"><path id="SvgjsPath2569" d="M 15.559285409109942 0L 155.5928540910994 0L 155.5928540910994 45.94876854641029L 15.559285409109942 45.94876854641029L 15.559285409109942 36.759014837128234L 0 36.759014837128234L 0 27.569261127846175L 15.559285409109942 27.569261127846175L 15.559285409109942 18.379507418564117L 0 18.379507418564117L 0 9.189753709282058L 15.559285409109942 9.189753709282058L 15.559285409109942 0Z" stroke="rgba(50,50,50,1)" stroke-width="2" fill-opacity="1" fill="#ffffff"></path><path id="SvgjsPath2570" d="M 15.559285409109942 36.759014837128234L 31.118570818219883 36.759014837128234L 31.118570818219883 27.569261127846175L 15.559285409109942 27.569261127846175M 15.559285409109942 18.379507418564117L 31.118570818219883 18.379507418564117L 31.118570818219883 9.189753709282058L 15.559285409109942 9.189753709282058" stroke="rgba(50,50,50,1)" stroke-width="2" fill="none"></path><path id="SvgjsPath2571" d="M 15.559285409109942 0L 155.5928540910994 0L 155.5928540910994 45.94876854641029L 15.559285409109942 45.94876854641029L 15.559285409109942 36.759014837128234L 0 36.759014837128234L 0 27.569261127846175L 15.559285409109942 27.569261127846175L 15.559285409109942 18.379507418564117L 0 18.379507418564117L 0 9.189753709282058L 15.559285409109942 9.189753709282058L 15.559285409109942 0Z" stroke="none" fill="none"></path><g id="SvgjsG2572"><text id="SvgjsText2573" font-family="微软雅黑" text-anchor="middle" font-size="13px" width="127px" fill="#323232" font-weight="700" align="middle" lineHeight="125%" anchor="middle" family="微软雅黑" size="13px" weight="700" font-style="" opacity="1" y="12.349384273205146" transform="rotate(0)"><tspan id="SvgjsTspan2574" dy="16" x="87.94910676138743"><tspan id="SvgjsTspan2575" style="text-decoration:;">ve()=vl()=8</tspan></tspan></text></g></g></svg>