<svg id="SvgjsSvg2112" width="665.3125" height="778.1249847412109" xmlns="http://www.w3.org/2000/svg" version="1.1" xmlns:xlink="http://www.w3.org/1999/xlink" xmlns:svgjs="http://svgjs.com/svgjs"><defs id="SvgjsDefs2113"><marker id="SvgjsMarker2128" markerWidth="14" markerHeight="10" refX="10" refY="5" viewBox="0 0 14 10" orient="auto" markerUnits="userSpaceOnUse" stroke-dasharray="0,0"><path id="SvgjsPath2129" d="M0,0 L14,5 L0,10 L0,0" fill="#323232" stroke="#323232" stroke-width="1"></path></marker><marker id="SvgjsMarker2138" markerWidth="14" markerHeight="10" refX="10" refY="5" viewBox="0 0 14 10" orient="auto" markerUnits="userSpaceOnUse" stroke-dasharray="0,0"><path id="SvgjsPath2139" d="M0,0 L14,5 L0,10 L0,0" fill="#323232" stroke="#323232" stroke-width="1"></path></marker><marker id="SvgjsMarker2148" markerWidth="14" markerHeight="10" refX="10" refY="5" viewBox="0 0 14 10" orient="auto" markerUnits="userSpaceOnUse" stroke-dasharray="0,0"><path id="SvgjsPath2149" d="M0,0 L14,5 L0,10 L0,0" fill="#323232" stroke="#323232" stroke-width="1"></path></marker><marker id="SvgjsMarker2152" markerWidth="14" markerHeight="10" refX="10" refY="5" viewBox="0 0 14 10" orient="auto" markerUnits="userSpaceOnUse" stroke-dasharray="0,0"><path id="SvgjsPath2153" d="M0,0 L14,5 L0,10 L0,0" fill="#323232" stroke="#323232" stroke-width="1"></path></marker><marker id="SvgjsMarker2162" markerWidth="14" markerHeight="10" refX="10" refY="5" viewBox="0 0 14 10" orient="auto" markerUnits="userSpaceOnUse" stroke-dasharray="0,0"><path id="SvgjsPath2163" d="M0,0 L14,5 L0,10 L0,0" fill="#323232" stroke="#323232" stroke-width="1"></path></marker><marker id="SvgjsMarker2172" markerWidth="14" markerHeight="10" refX="10" refY="5" viewBox="0 0 14 10" orient="auto" markerUnits="userSpaceOnUse" stroke-dasharray="0,0"><path id="SvgjsPath2173" d="M0,0 L14,5 L0,10 L0,0" fill="#323232" stroke="#323232" stroke-width="1"></path></marker><marker id="SvgjsMarker2176" markerWidth="14" markerHeight="10" refX="10" refY="5" viewBox="0 0 14 10" orient="auto" markerUnits="userSpaceOnUse" stroke-dasharray="0,0"><path id="SvgjsPath2177" d="M0,0 L14,5 L0,10 L0,0" fill="#323232" stroke="#323232" stroke-width="1"></path></marker><marker id="SvgjsMarker2180" markerWidth="14" markerHeight="10" refX="10" refY="5" viewBox="0 0 14 10" orient="auto" markerUnits="userSpaceOnUse" stroke-dasharray="0,0"><path id="SvgjsPath2181" d="M0,0 L14,5 L0,10 L0,0" fill="#323232" stroke="#323232" stroke-width="1"></path></marker><marker id="SvgjsMarker2256" markerWidth="14" markerHeight="10" refX="10" refY="5" viewBox="0 0 14 10" orient="auto" markerUnits="userSpaceOnUse" stroke-dasharray="0,0"><path id="SvgjsPath2257" d="M0,0 L14,5 L0,10 L0,0" fill="#323232" stroke="#323232" stroke-width="1"></path></marker><marker id="SvgjsMarker2264" markerWidth="14" markerHeight="10" refX="10" refY="5" viewBox="0 0 14 10" orient="auto" markerUnits="userSpaceOnUse" stroke-dasharray="0,0"><path id="SvgjsPath2265" d="M0,0 L14,5 L0,10 L0,0" fill="#323232" stroke="#323232" stroke-width="1"></path></marker><marker id="SvgjsMarker2272" markerWidth="14" markerHeight="10" refX="10" refY="5" viewBox="0 0 14 10" orient="auto" markerUnits="userSpaceOnUse" stroke-dasharray="0,0"><path id="SvgjsPath2273" d="M0,0 L14,5 L0,10 L0,0" fill="#323232" stroke="#323232" stroke-width="1"></path></marker><marker id="SvgjsMarker2276" markerWidth="14" markerHeight="10" refX="10" refY="5" viewBox="0 0 14 10" orient="auto" markerUnits="userSpaceOnUse" stroke-dasharray="0,0"><path id="SvgjsPath2277" d="M0,0 L14,5 L0,10 L0,0" fill="#323232" stroke="#323232" stroke-width="1"></path></marker><marker id="SvgjsMarker2284" markerWidth="14" markerHeight="10" refX="10" refY="5" viewBox="0 0 14 10" orient="auto" markerUnits="userSpaceOnUse" stroke-dasharray="0,0"><path id="SvgjsPath2285" d="M0,0 L14,5 L0,10 L0,0" fill="#323232" stroke="#323232" stroke-width="1"></path></marker><marker id="SvgjsMarker2292" markerWidth="14" markerHeight="10" refX="10" refY="5" viewBox="0 0 14 10" orient="auto" markerUnits="userSpaceOnUse" stroke-dasharray="0,0"><path id="SvgjsPath2293" d="M0,0 L14,5 L0,10 L0,0" fill="#323232" stroke="#323232" stroke-width="1"></path></marker><marker id="SvgjsMarker2296" markerWidth="14" markerHeight="10" refX="10" refY="5" viewBox="0 0 14 10" orient="auto" markerUnits="userSpaceOnUse" stroke-dasharray="0,0"><path id="SvgjsPath2297" d="M0,0 L14,5 L0,10 L0,0" fill="#323232" stroke="#323232" stroke-width="1"></path></marker><marker id="SvgjsMarker2300" markerWidth="14" markerHeight="10" refX="10" refY="5" viewBox="0 0 14 10" orient="auto" markerUnits="userSpaceOnUse" stroke-dasharray="0,0"><path id="SvgjsPath2301" d="M0,0 L14,5 L0,10 L0,0" fill="#323232" stroke="#323232" stroke-width="1"></path></marker></defs><g id="SvgjsG2114" transform="translate(108.31251525878906,154.99999618530273)"><path id="SvgjsPath2115" d="M 0 28.5C 0 -9.5 57 -9.5 57 28.5C 57 66.5 0 66.5 0 28.5Z" stroke="rgba(50,50,50,1)" stroke-width="2" fill-opacity="1" fill="#c8e6c9"></path><g id="SvgjsG2116"><text id="SvgjsText2117" font-family="&quot;Times New Roman&quot;" text-anchor="middle" font-size="21px" width="37px" fill="#323232" font-weight="400" align="middle" lineHeight="125%" anchor="middle" family="&quot;Times New Roman&quot;" size="21px" weight="400" font-style="" opacity="1" y="9.875" transform="rotate(0)"><tspan id="SvgjsTspan2118" dy="26" x="28.5"><tspan id="SvgjsTspan2119" style="text-decoration:;">V1</tspan></tspan></text></g></g><g id="SvgjsG2120" transform="translate(209.31251525878906,48.999996185302734)"><path id="SvgjsPath2121" d="M 0 28.5C 0 -9.5 57 -9.5 57 28.5C 57 66.5 0 66.5 0 28.5Z" stroke="rgba(50,50,50,1)" stroke-width="2" fill-opacity="1" fill="#ffffff"></path><g id="SvgjsG2122"><text id="SvgjsText2123" font-family="&quot;Times New Roman&quot;" text-anchor="middle" font-size="21px" width="37px" fill="#323232" font-weight="400" align="middle" lineHeight="125%" anchor="middle" family="&quot;Times New Roman&quot;" size="21px" weight="400" font-style="" opacity="1" y="9.875" transform="rotate(0)"><tspan id="SvgjsTspan2124" dy="26" x="28.5"><tspan id="SvgjsTspan2125" style="text-decoration:;">V2</tspan></tspan></text></g></g><g id="SvgjsG2126"><path id="SvgjsPath2127" d="M153.2835669000225 158.7353449045389L212.52921061894398 96.89247609318718" stroke="#323232" stroke-width="2" fill="none" marker-end="url(#SvgjsMarker2128)"></path></g><g id="SvgjsG2130" transform="translate(226.31251525878906,229.99999618530273)"><path id="SvgjsPath2131" d="M 0 28.5C 0 -9.5 57 -9.5 57 28.5C 57 66.5 0 66.5 0 28.5Z" stroke="rgba(50,50,50,1)" stroke-width="2" fill-opacity="1" fill="#ffffff"></path><g id="SvgjsG2132"><text id="SvgjsText2133" font-family="&quot;Times New Roman&quot;" text-anchor="middle" font-size="21px" width="37px" fill="#323232" font-weight="400" align="middle" lineHeight="125%" anchor="middle" family="&quot;Times New Roman&quot;" size="21px" weight="400" font-style="" opacity="1" y="9.875" transform="rotate(0)"><tspan id="SvgjsTspan2134" dy="26" x="28.5"><tspan id="SvgjsTspan2135" style="text-decoration:;">V3</tspan></tspan></text></g></g><g id="SvgjsG2136"><path id="SvgjsPath2137" d="M161.28481682920938 199.04516394326419L226.91976929979865 241.72786530360423" stroke="#323232" stroke-width="2" fill="none" marker-end="url(#SvgjsMarker2138)"></path></g><g id="SvgjsG2140" transform="translate(356.31251525878906,131.99999618530273)"><path id="SvgjsPath2141" d="M 0 28.5C 0 -9.5 57 -9.5 57 28.5C 57 66.5 0 66.5 0 28.5Z" stroke="rgba(50,50,50,1)" stroke-width="2" fill-opacity="1" fill="#ffffff"></path><g id="SvgjsG2142"><text id="SvgjsText2143" font-family="&quot;Times New Roman&quot;" text-anchor="middle" font-size="21px" width="37px" fill="#323232" font-weight="400" align="middle" lineHeight="125%" anchor="middle" family="&quot;Times New Roman&quot;" size="21px" weight="400" font-style="" opacity="1" y="9.875" transform="rotate(0)"><tspan id="SvgjsTspan2144" dy="26" x="28.5"><tspan id="SvgjsTspan2145" style="text-decoration:;">V4</tspan></tspan></text></g></g><g id="SvgjsG2146"><path id="SvgjsPath2147" d="M279.48936744501043 242.09325710518738L360.7105904744375 181.61787095654608" stroke="#323232" stroke-width="2" fill="none" marker-end="url(#SvgjsMarker2148)"></path></g><g id="SvgjsG2150"><path id="SvgjsPath2151" d="M266.32554236704163 84.44570210664284L362.7274362092635 137.332638391478" stroke="#323232" stroke-width="2" fill="none" marker-end="url(#SvgjsMarker2152)"></path></g><g id="SvgjsG2154" transform="translate(467.31251525878906,24.999996185302734)"><path id="SvgjsPath2155" d="M 0 28.5C 0 -9.5 57 -9.5 57 28.5C 57 66.5 0 66.5 0 28.5Z" stroke="rgba(50,50,50,1)" stroke-width="2" fill-opacity="1" fill="#ffffff"></path><g id="SvgjsG2156"><text id="SvgjsText2157" font-family="&quot;Times New Roman&quot;" text-anchor="middle" font-size="21px" width="37px" fill="#323232" font-weight="400" align="middle" lineHeight="125%" anchor="middle" family="&quot;Times New Roman&quot;" size="21px" weight="400" font-style="" opacity="1" y="9.875" transform="rotate(0)"><tspan id="SvgjsTspan2158" dy="26" x="28.5"><tspan id="SvgjsTspan2159" style="text-decoration:;">V5</tspan></tspan></text></g></g><g id="SvgjsG2160"><path id="SvgjsPath2161" d="M263.3714261802219 64.28918673968214L463.7175425068017 53.690182705509315" stroke="#323232" stroke-width="2" fill="none" marker-end="url(#SvgjsMarker2162)"></path></g><g id="SvgjsG2164" transform="translate(583.3125152587891,140.99999618530273)"><path id="SvgjsPath2165" d="M 0 28.5C 0 -9.5 57 -9.5 57 28.5C 57 66.5 0 66.5 0 28.5Z" stroke="rgba(50,50,50,1)" stroke-width="2" fill-opacity="1" fill="#ffe0b2"></path><g id="SvgjsG2166"><text id="SvgjsText2167" font-family="&quot;Times New Roman&quot;" text-anchor="middle" font-size="21px" width="37px" fill="#323232" font-weight="400" align="middle" lineHeight="125%" anchor="middle" family="&quot;Times New Roman&quot;" size="21px" weight="400" font-style="" opacity="1" y="9.875" transform="rotate(0)"><tspan id="SvgjsTspan2168" dy="26" x="28.5"><tspan id="SvgjsTspan2169" style="text-decoration:;">V6</tspan></tspan></text></g></g><g id="SvgjsG2170"><path id="SvgjsPath2171" d="M284.28168366529866 258.2535969161812L582.6895343991389 182.3870335541403" stroke="#323232" stroke-width="2" fill="none" marker-end="url(#SvgjsMarker2172)"></path></g><g id="SvgjsG2174"><path id="SvgjsPath2175" d="M414.3111168136585 160.5528633264429L579.7175496612591 169.3096744771982" stroke="#323232" stroke-width="2" fill="none" marker-end="url(#SvgjsMarker2176)"></path></g><g id="SvgjsG2178"><path id="SvgjsPath2179" d="M520.53527062983 69.01228277645323L591.3052124628268 145.2760512103036" stroke="#323232" stroke-width="2" fill="none" marker-end="url(#SvgjsMarker2180)"></path></g><g id="SvgjsG2182" transform="translate(108.31251525878906,91.99999618530273)"><path id="SvgjsPath2183" d="M 0 0L 120 0L 120 40L 0 40Z" stroke="none" fill="none"></path><g id="SvgjsG2184"><text id="SvgjsText2185" font-family="&quot;Times New Roman&quot;" text-anchor="middle" font-size="19px" width="120px" fill="#323232" font-weight="700" align="middle" lineHeight="125%" anchor="middle" family="&quot;Times New Roman&quot;" size="19px" weight="700" font-style="" opacity="1" y="3.625" transform="rotate(0)"><tspan id="SvgjsTspan2186" dy="23" x="60"><tspan id="SvgjsTspan2187" style="text-decoration:;">a1=3</tspan></tspan></text></g></g><g id="SvgjsG2188" transform="translate(396.31251525878906,217.99999618530273)"><path id="SvgjsPath2189" d="M 0 0L 120 0L 120 40L 0 40Z" stroke="none" fill="none"></path><g id="SvgjsG2190"><text id="SvgjsText2191" font-family="&quot;Times New Roman&quot;" text-anchor="middle" font-size="19px" width="120px" fill="#323232" font-weight="700" align="middle" lineHeight="125%" anchor="middle" family="&quot;Times New Roman&quot;" size="19px" weight="700" font-style="" opacity="1" y="3.625" transform="rotate(0)"><tspan id="SvgjsTspan2192" dy="23" x="60"><tspan id="SvgjsTspan2193" style="text-decoration:;">a6=3</tspan></tspan></text></g></g><g id="SvgjsG2194" transform="translate(315.31251525878906,24.999996185302734)"><path id="SvgjsPath2195" d="M 0 0L 120 0L 120 40L 0 40Z" stroke="none" fill="none"></path><g id="SvgjsG2196"><text id="SvgjsText2197" font-family="&quot;Times New Roman&quot;" text-anchor="middle" font-size="19px" width="120px" fill="#323232" font-weight="700" align="middle" lineHeight="125%" anchor="middle" family="&quot;Times New Roman&quot;" size="19px" weight="700" font-style="" opacity="1" y="3.625" transform="rotate(0)"><tspan id="SvgjsTspan2198" dy="23" x="60"><tspan id="SvgjsTspan2199" style="text-decoration:;">a4=3</tspan></tspan></text></g></g><g id="SvgjsG2200" transform="translate(123.31251525878906,217.99999618530273)"><path id="SvgjsPath2201" d="M 0 0L 120 0L 120 40L 0 40Z" stroke="none" fill="none"></path><g id="SvgjsG2202"><text id="SvgjsText2203" font-family="&quot;Times New Roman&quot;" text-anchor="middle" font-size="19px" width="120px" fill="#323232" font-weight="700" align="middle" lineHeight="125%" anchor="middle" family="&quot;Times New Roman&quot;" size="19px" weight="700" font-style="" opacity="1" y="3.625" transform="rotate(0)"><tspan id="SvgjsTspan2204" dy="23" x="60"><tspan id="SvgjsTspan2205" style="text-decoration:;">a2=2</tspan></tspan></text></g></g><g id="SvgjsG2206" transform="translate(236.31251525878906,104.99999618530273)"><path id="SvgjsPath2207" d="M 0 0L 120 0L 120 40L 0 40Z" stroke="none" fill="none"></path><g id="SvgjsG2208"><text id="SvgjsText2209" font-family="&quot;Times New Roman&quot;" text-anchor="middle" font-size="19px" width="120px" fill="#323232" font-weight="700" align="middle" lineHeight="125%" anchor="middle" family="&quot;Times New Roman&quot;" size="19px" weight="700" font-style="" opacity="1" y="3.625" transform="rotate(0)"><tspan id="SvgjsTspan2210" dy="23" x="60"><tspan id="SvgjsTspan2211" style="text-decoration:;">a3=2</tspan></tspan></text></g></g><g id="SvgjsG2212" transform="translate(242.31251525878906,184.99999618530273)"><path id="SvgjsPath2213" d="M 0 0L 120 0L 120 40L 0 40Z" stroke="none" fill="none"></path><g id="SvgjsG2214"><text id="SvgjsText2215" font-family="&quot;Times New Roman&quot;" text-anchor="middle" font-size="19px" width="120px" fill="#323232" font-weight="700" align="middle" lineHeight="125%" anchor="middle" family="&quot;Times New Roman&quot;" size="19px" weight="700" font-style="" opacity="1" y="3.625" transform="rotate(0)"><tspan id="SvgjsTspan2216" dy="23" x="60"><tspan id="SvgjsTspan2217" style="text-decoration:;">a5=4</tspan></tspan></text></g></g><g id="SvgjsG2218" transform="translate(425.31251525878906,131.99999618530273)"><path id="SvgjsPath2219" d="M 0 0L 120 0L 120 40L 0 40Z" stroke="none" fill="none"></path><g id="SvgjsG2220"><text id="SvgjsText2221" font-family="&quot;Times New Roman&quot;" text-anchor="middle" font-size="19px" width="120px" fill="#323232" font-weight="700" align="middle" lineHeight="125%" anchor="middle" family="&quot;Times New Roman&quot;" size="19px" weight="700" font-style="" opacity="1" y="3.625" transform="rotate(0)"><tspan id="SvgjsTspan2222" dy="23" x="60"><tspan id="SvgjsTspan2223" style="text-decoration:;">a7=2</tspan></tspan></text></g></g><g id="SvgjsG2224" transform="translate(516.3125152587891,75.99999618530273)"><path id="SvgjsPath2225" d="M 0 0L 120 0L 120 40L 0 40Z" stroke="none" fill="none"></path><g id="SvgjsG2226"><text id="SvgjsText2227" font-family="&quot;Times New Roman&quot;" text-anchor="middle" font-size="19px" width="120px" fill="#323232" font-weight="700" align="middle" lineHeight="125%" anchor="middle" family="&quot;Times New Roman&quot;" size="19px" weight="700" font-style="" opacity="1" y="3.625" transform="rotate(0)"><tspan id="SvgjsTspan2228" dy="23" x="60"><tspan id="SvgjsTspan2229" style="text-decoration:;">a8=1</tspan></tspan></text></g></g><g id="SvgjsG2230" transform="translate(108.31251525878906,312.99999618530273)"><path id="SvgjsPath2231" d="M 8 8Q 8 0 16 0L 490.75 0Q 498.75 0 498.75 8L 498.75 34.60000228881836Q 498.75 42.60000228881836 490.75 42.60000228881836L 490.75 42.60000228881836" stroke="rgba(50,50,50,1)" stroke-width="2" fill-opacity="1" fill="#ffffff"></path><path id="SvgjsPath2232" d="M 0 16Q 0 8 8 8L 482.75 8Q 490.75 8 490.75 16L 490.75 42.60000228881836Q 490.75 50.60000228881836 482.75 50.60000228881836L 8 50.60000228881836Q 0 50.60000228881836 0 42.60000228881836L 0 16Z" stroke="rgba(50,50,50,1)" stroke-width="2" fill-opacity="1" fill="#ffffff"></path><path id="SvgjsPath2233" d="M 0 4Q 0 0 4 0L 494.75 0Q 498.75 0 498.75 4L 498.75 46.60000228881836Q 498.75 50.60000228881836 494.75 50.60000228881836L 4 50.60000228881836Q 0 50.60000228881836 0 46.60000228881836Z" stroke="none" fill="none"></path><g id="SvgjsG2234"><text id="SvgjsText2235" font-family="微软雅黑" text-anchor="middle" font-size="13px" width="459px" fill="#323232" font-weight="400" align="middle" lineHeight="125%" anchor="middle" family="微软雅黑" size="13px" weight="400" font-style="" opacity="1" y="18.67500114440918" transform="rotate(0)"></text></g></g><g id="SvgjsG2236" transform="translate(214.06251525878906,317.99999618530273)"><path id="SvgjsPath2237" d="M 0 0L 266 0L 266 46.600006103515625L 0 46.600006103515625Z" stroke="none" fill="none"></path><g id="SvgjsG2238"><text id="SvgjsText2239" font-family="&quot;Times New Roman&quot;" text-anchor="middle" font-size="17px" width="266px" fill="#323232" font-weight="700" align="middle" lineHeight="125%" anchor="middle" family="&quot;Times New Roman&quot;" size="17px" weight="700" font-style="" opacity="1" y="8.675003051757812" transform="rotate(0)"><tspan id="SvgjsTspan2240" dy="21" x="133"><tspan id="SvgjsTspan2241" style="text-decoration:;">从前往后，求最早发生时间</tspan></tspan></text></g></g><g id="SvgjsG2242" transform="translate(302.31251525878906,376.5999984741211)"><path id="SvgjsPath2243" d="M 19.8 0L 40.2 0L 40.2 60L 60 60L 30 90L 0 60L 19.8 60L 19.8 0Z" stroke="rgba(50,50,50,1)" stroke-width="2" fill-opacity="1" fill="#ffffff"></path><g id="SvgjsG2244"><text id="SvgjsText2245" font-family="微软雅黑" text-anchor="middle" font-size="13px" width="84px" fill="#323232" font-weight="400" align="middle" lineHeight="125%" anchor="middle" family="微软雅黑" size="13px" weight="400" font-style="" opacity="1" y="29.875" transform="rotate(0)"></text></g></g><g id="SvgjsG2246" transform="translate(98.81251525878912,601.9871297771823)"><path id="SvgjsPath2247" d="M 0 26.831024939517285C 0 -8.943674979839095 53.19642857142857 -8.943674979839095 53.19642857142857 26.831024939517285C 53.19642857142857 62.605724858873664 0 62.605724858873664 0 26.831024939517285Z" stroke="rgba(50,50,50,1)" stroke-width="2" fill-opacity="1" fill="#c8e6c9"></path><g id="SvgjsG2248"><text id="SvgjsText2249" font-family="&quot;Times New Roman&quot;" text-anchor="middle" font-size="21px" width="34px" fill="#323232" font-weight="400" align="middle" lineHeight="125%" anchor="middle" family="&quot;Times New Roman&quot;" size="21px" weight="400" font-style="" opacity="1" y="8.206024939517285" transform="rotate(0)"></text></g></g><g id="SvgjsG2250" transform="translate(193.07285360465374,502.19454579160936)"><path id="SvgjsPath2251" d="M 0 26.831024939517285C 0 -8.943674979839095 53.19642857142857 -8.943674979839095 53.19642857142857 26.831024939517285C 53.19642857142857 62.605724858873664 0 62.605724858873664 0 26.831024939517285Z" stroke="rgba(50,50,50,1)" stroke-width="2" fill-opacity="1" fill="#ffffff"></path><g id="SvgjsG2252"><text id="SvgjsText2253" font-family="&quot;Times New Roman&quot;" text-anchor="middle" font-size="21px" width="34px" fill="#323232" font-weight="400" align="middle" lineHeight="125%" anchor="middle" family="&quot;Times New Roman&quot;" size="21px" weight="400" font-style="" opacity="1" y="8.206024939517285" transform="rotate(0)"></text></g></g><g id="SvgjsG2254"><path id="SvgjsPath2255" d="M140.82569160337147 605.4584433715393L195.92005588794973 547.4454648358125" stroke="#323232" stroke-width="2" fill="none" marker-end="url(#SvgjsMarker2256)"></path></g><g id="SvgjsG2258" transform="translate(208.9384551084131,672.5950901443331)"><path id="SvgjsPath2259" d="M 0 26.831024939517285C 0 -8.943674979839095 53.19642857142857 -8.943674979839095 53.19642857142857 26.831024939517285C 53.19642857142857 62.605724858873664 0 62.605724858873664 0 26.831024939517285Z" stroke="rgba(50,50,50,1)" stroke-width="2" fill-opacity="1" fill="#ffffff"></path><g id="SvgjsG2260"><text id="SvgjsText2261" font-family="&quot;Times New Roman&quot;" text-anchor="middle" font-size="21px" width="34px" fill="#323232" font-weight="400" align="middle" lineHeight="125%" anchor="middle" family="&quot;Times New Roman&quot;" size="21px" weight="400" font-style="" opacity="1" y="8.206024939517285" transform="rotate(0)"></text></g></g><g id="SvgjsG2262"><path id="SvgjsPath2263" d="M148.30377014442388 643.4882550509794L209.31165454706502 683.5092121160405" stroke="#323232" stroke-width="2" fill="none" marker-end="url(#SvgjsMarker2264)"></path></g><g id="SvgjsG2266" transform="translate(330.26364307833774,580.3340219312562)"><path id="SvgjsPath2267" d="M 0 26.831024939517285C 0 -8.943674979839095 53.19642857142857 -8.943674979839095 53.19642857142857 26.831024939517285C 53.19642857142857 62.605724858873664 0 62.605724858873664 0 26.831024939517285Z" stroke="rgba(50,50,50,1)" stroke-width="2" fill-opacity="1" fill="#ffffff"></path><g id="SvgjsG2268"><text id="SvgjsText2269" font-family="&quot;Times New Roman&quot;" text-anchor="middle" font-size="21px" width="34px" fill="#323232" font-weight="400" align="middle" lineHeight="125%" anchor="middle" family="&quot;Times New Roman&quot;" size="21px" weight="400" font-style="" opacity="1" y="8.206024939517285" transform="rotate(0)"></text></g></g><g id="SvgjsG2270"><path id="SvgjsPath2271" d="M258.61787126071147 683.9418430369408L334.18456812972784 627.1842007340973" stroke="#323232" stroke-width="2" fill="none" marker-end="url(#SvgjsMarker2272)"></path></g><g id="SvgjsG2274"><path id="SvgjsPath2275" d="M246.3381659628194 535.5959252066825L336.04628720774053 585.2413678438272" stroke="#323232" stroke-width="2" fill="none" marker-end="url(#SvgjsMarker2276)"></path></g><g id="SvgjsG2278" transform="translate(433.8566881911198,479.5999984741211)"><path id="SvgjsPath2279" d="M 0 26.831024939517285C 0 -8.943674979839095 53.19642857142857 -8.943674979839095 53.19642857142857 26.831024939517285C 53.19642857142857 62.605724858873664 0 62.605724858873664 0 26.831024939517285Z" stroke="rgba(50,50,50,1)" stroke-width="2" fill-opacity="1" fill="#ffffff"></path><g id="SvgjsG2280"><text id="SvgjsText2281" font-family="&quot;Times New Roman&quot;" text-anchor="middle" font-size="21px" width="34px" fill="#323232" font-weight="400" align="middle" lineHeight="125%" anchor="middle" family="&quot;Times New Roman&quot;" size="21px" weight="400" font-style="" opacity="1" y="8.206024939517285" transform="rotate(0)"></text></g></g><g id="SvgjsG2282"><path id="SvgjsPath2283" d="M243.5910616194443 516.5848384361976L430.261803641647 506.62286990425525" stroke="#323232" stroke-width="2" fill="none" marker-end="url(#SvgjsMarker2284)"></path></g><g id="SvgjsG2286" transform="translate(542.1160866873605,588.8069771753142)"><path id="SvgjsPath2287" d="M 0 26.831024939517285C 0 -8.943674979839095 53.19642857142857 -8.943674979839095 53.19642857142857 26.831024939517285C 53.19642857142857 62.605724858873664 0 62.605724858873664 0 26.831024939517285Z" stroke="rgba(50,50,50,1)" stroke-width="2" fill-opacity="1" fill="#ffe0b2"></path><g id="SvgjsG2288"><text id="SvgjsText2289" font-family="&quot;Times New Roman&quot;" text-anchor="middle" font-size="21px" width="34px" fill="#323232" font-weight="400" align="middle" lineHeight="125%" anchor="middle" family="&quot;Times New Roman&quot;" size="21px" weight="400" font-style="" opacity="1" y="8.206024939517285" transform="rotate(0)"></text></g></g><g id="SvgjsG2290"><path id="SvgjsPath2291" d="M263.103535220981 699.1776916714101L541.3037186072646 627.8296000583605" stroke="#323232" stroke-width="2" fill="none" marker-end="url(#SvgjsMarker2292)"></path></g><g id="SvgjsG2294"><path id="SvgjsPath2295" d="M384.45864866914394 607.2183754407047L538.5212094176011 615.4460192630793" stroke="#323232" stroke-width="2" fill="none" marker-end="url(#SvgjsMarker2296)"></path></g><g id="SvgjsG2298"><path id="SvgjsPath2299" d="M483.5701247018285 521.0807758640659L549.4235180909213 592.6674793448102" stroke="#323232" stroke-width="2" fill="none" marker-end="url(#SvgjsMarker2300)"></path></g><g id="SvgjsG2302" transform="translate(25.000826947100705,581.9793332390072)"><path id="SvgjsPath2303" d="M 6.714285714285722 0L 67.14285714285722 0L 67.14285714285722 50.37142726353204L 6.714285714285722 50.37142726353204L 6.714285714285722 40.297141810825636L 0 40.297141810825636L 0 30.222856358119223L 6.714285714285722 30.222856358119223L 6.714285714285722 20.148570905412818L 0 20.148570905412818L 0 10.074285452706409L 6.714285714285722 10.074285452706409L 6.714285714285722 0Z" stroke="rgba(50,50,50,1)" stroke-width="2" fill-opacity="1" fill="#ffffff"></path><path id="SvgjsPath2304" d="M 6.714285714285722 40.297141810825636L 13.428571428571445 40.297141810825636L 13.428571428571445 30.222856358119223L 6.714285714285722 30.222856358119223M 6.714285714285722 20.148570905412818L 13.428571428571445 20.148570905412818L 13.428571428571445 10.074285452706409L 6.714285714285722 10.074285452706409" stroke="rgba(50,50,50,1)" stroke-width="2" fill="none"></path><path id="SvgjsPath2305" d="M 6.714285714285722 0L 67.14285714285722 0L 67.14285714285722 50.37142726353204L 6.714285714285722 50.37142726353204L 6.714285714285722 40.297141810825636L 0 40.297141810825636L 0 30.222856358119223L 6.714285714285722 30.222856358119223L 6.714285714285722 20.148570905412818L 0 20.148570905412818L 0 10.074285452706409L 6.714285714285722 10.074285452706409L 6.714285714285722 0Z" stroke="none" fill="none"></path><g id="SvgjsG2306"><text id="SvgjsText2307" font-family="微软雅黑" text-anchor="middle" font-size="13px" width="49px" fill="#323232" font-weight="700" align="middle" lineHeight="125%" anchor="middle" family="微软雅黑" size="13px" weight="700" font-style="" opacity="1" y="14.56071363176602" transform="rotate(0)"><tspan id="SvgjsTspan2308" dy="16" x="37.89285714285715"><tspan id="SvgjsTspan2309" style="text-decoration:;">ve()=0</tspan></tspan></text></g></g><g id="SvgjsG2310" transform="translate(134.7410866873605,472.15555402967664)"><path id="SvgjsPath2311" d="M 6.714285714285722 0L 67.14285714285722 0L 67.14285714285722 50.37142726353204L 6.714285714285722 50.37142726353204L 6.714285714285722 40.297141810825636L 0 40.297141810825636L 0 30.222856358119223L 6.714285714285722 30.222856358119223L 6.714285714285722 20.148570905412818L 0 20.148570905412818L 0 10.074285452706409L 6.714285714285722 10.074285452706409L 6.714285714285722 0Z" stroke="rgba(50,50,50,1)" stroke-width="2" fill-opacity="1" fill="#ffffff"></path><path id="SvgjsPath2312" d="M 6.714285714285722 40.297141810825636L 13.428571428571445 40.297141810825636L 13.428571428571445 30.222856358119223L 6.714285714285722 30.222856358119223M 6.714285714285722 20.148570905412818L 13.428571428571445 20.148570905412818L 13.428571428571445 10.074285452706409L 6.714285714285722 10.074285452706409" stroke="rgba(50,50,50,1)" stroke-width="2" fill="none"></path><path id="SvgjsPath2313" d="M 6.714285714285722 0L 67.14285714285722 0L 67.14285714285722 50.37142726353204L 6.714285714285722 50.37142726353204L 6.714285714285722 40.297141810825636L 0 40.297141810825636L 0 30.222856358119223L 6.714285714285722 30.222856358119223L 6.714285714285722 20.148570905412818L 0 20.148570905412818L 0 10.074285452706409L 6.714285714285722 10.074285452706409L 6.714285714285722 0Z" stroke="none" fill="none"></path><g id="SvgjsG2314"><text id="SvgjsText2315" font-family="微软雅黑" text-anchor="middle" font-size="13px" width="49px" fill="#323232" font-weight="700" align="middle" lineHeight="125%" anchor="middle" family="微软雅黑" size="13px" weight="700" font-style="" opacity="1" y="14.56071363176602" transform="rotate(0)"><tspan id="SvgjsTspan2316" dy="16" x="37.89285714285715"><tspan id="SvgjsTspan2317" style="text-decoration:;">ve()=3</tspan></tspan></text></g></g><g id="SvgjsG2318" transform="translate(142.16965811593184,703.1293229433714)"><path id="SvgjsPath2319" d="M 6.714285714285722 0L 67.14285714285722 0L 67.14285714285722 50.37142726353204L 6.714285714285722 50.37142726353204L 6.714285714285722 40.297141810825636L 0 40.297141810825636L 0 30.222856358119223L 6.714285714285722 30.222856358119223L 6.714285714285722 20.148570905412818L 0 20.148570905412818L 0 10.074285452706409L 6.714285714285722 10.074285452706409L 6.714285714285722 0Z" stroke="rgba(50,50,50,1)" stroke-width="2" fill-opacity="1" fill="#ffffff"></path><path id="SvgjsPath2320" d="M 6.714285714285722 40.297141810825636L 13.428571428571445 40.297141810825636L 13.428571428571445 30.222856358119223L 6.714285714285722 30.222856358119223M 6.714285714285722 20.148570905412818L 13.428571428571445 20.148570905412818L 13.428571428571445 10.074285452706409L 6.714285714285722 10.074285452706409" stroke="rgba(50,50,50,1)" stroke-width="2" fill="none"></path><path id="SvgjsPath2321" d="M 6.714285714285722 0L 67.14285714285722 0L 67.14285714285722 50.37142726353204L 6.714285714285722 50.37142726353204L 6.714285714285722 40.297141810825636L 0 40.297141810825636L 0 30.222856358119223L 6.714285714285722 30.222856358119223L 6.714285714285722 20.148570905412818L 0 20.148570905412818L 0 10.074285452706409L 6.714285714285722 10.074285452706409L 6.714285714285722 0Z" stroke="none" fill="none"></path><g id="SvgjsG2322"><text id="SvgjsText2323" font-family="微软雅黑" text-anchor="middle" font-size="13px" width="49px" fill="#323232" font-weight="700" align="middle" lineHeight="125%" anchor="middle" family="微软雅黑" size="13px" weight="700" font-style="" opacity="1" y="14.56071363176602" transform="rotate(0)"><tspan id="SvgjsTspan2324" dy="16" x="37.89285714285715"><tspan id="SvgjsTspan2325" style="text-decoration:;">ve()=2</tspan></tspan></text></g></g><g id="SvgjsG2326" transform="translate(368.1696581159317,530.4020502160989)"><path id="SvgjsPath2327" d="M 6.714285714285722 0L 67.14285714285722 0L 67.14285714285722 50.37142726353204L 6.714285714285722 50.37142726353204L 6.714285714285722 40.297141810825636L 0 40.297141810825636L 0 30.222856358119223L 6.714285714285722 30.222856358119223L 6.714285714285722 20.148570905412818L 0 20.148570905412818L 0 10.074285452706409L 6.714285714285722 10.074285452706409L 6.714285714285722 0Z" stroke="rgba(50,50,50,1)" stroke-width="2" fill-opacity="1" fill="#ffffff"></path><path id="SvgjsPath2328" d="M 6.714285714285722 40.297141810825636L 13.428571428571445 40.297141810825636L 13.428571428571445 30.222856358119223L 6.714285714285722 30.222856358119223M 6.714285714285722 20.148570905412818L 13.428571428571445 20.148570905412818L 13.428571428571445 10.074285452706409L 6.714285714285722 10.074285452706409" stroke="rgba(50,50,50,1)" stroke-width="2" fill="none"></path><path id="SvgjsPath2329" d="M 6.714285714285722 0L 67.14285714285722 0L 67.14285714285722 50.37142726353204L 6.714285714285722 50.37142726353204L 6.714285714285722 40.297141810825636L 0 40.297141810825636L 0 30.222856358119223L 6.714285714285722 30.222856358119223L 6.714285714285722 20.148570905412818L 0 20.148570905412818L 0 10.074285452706409L 6.714285714285722 10.074285452706409L 6.714285714285722 0Z" stroke="none" fill="none"></path><g id="SvgjsG2330"><text id="SvgjsText2331" font-family="微软雅黑" text-anchor="middle" font-size="13px" width="49px" fill="#323232" font-weight="700" align="middle" lineHeight="125%" anchor="middle" family="微软雅黑" size="13px" weight="700" font-style="" opacity="1" y="14.56071363176602" transform="rotate(0)"><tspan id="SvgjsTspan2332" dy="16" x="37.89285714285715"><tspan id="SvgjsTspan2333" style="text-decoration:;">ve()=6</tspan></tspan></text></g></g><g id="SvgjsG2334" transform="translate(491.1047230509963,451.01777419295166)"><path id="SvgjsPath2335" d="M 6.714285714285722 0L 67.14285714285722 0L 67.14285714285722 50.37142726353204L 6.714285714285722 50.37142726353204L 6.714285714285722 40.297141810825636L 0 40.297141810825636L 0 30.222856358119223L 6.714285714285722 30.222856358119223L 6.714285714285722 20.148570905412818L 0 20.148570905412818L 0 10.074285452706409L 6.714285714285722 10.074285452706409L 6.714285714285722 0Z" stroke="rgba(50,50,50,1)" stroke-width="2" fill-opacity="1" fill="#ffffff"></path><path id="SvgjsPath2336" d="M 6.714285714285722 40.297141810825636L 13.428571428571445 40.297141810825636L 13.428571428571445 30.222856358119223L 6.714285714285722 30.222856358119223M 6.714285714285722 20.148570905412818L 13.428571428571445 20.148570905412818L 13.428571428571445 10.074285452706409L 6.714285714285722 10.074285452706409" stroke="rgba(50,50,50,1)" stroke-width="2" fill="none"></path><path id="SvgjsPath2337" d="M 6.714285714285722 0L 67.14285714285722 0L 67.14285714285722 50.37142726353204L 6.714285714285722 50.37142726353204L 6.714285714285722 40.297141810825636L 0 40.297141810825636L 0 30.222856358119223L 6.714285714285722 30.222856358119223L 6.714285714285722 20.148570905412818L 0 20.148570905412818L 0 10.074285452706409L 6.714285714285722 10.074285452706409L 6.714285714285722 0Z" stroke="none" fill="none"></path><g id="SvgjsG2338"><text id="SvgjsText2339" font-family="微软雅黑" text-anchor="middle" font-size="13px" width="49px" fill="#323232" font-weight="700" align="middle" lineHeight="125%" anchor="middle" family="微软雅黑" size="13px" weight="700" font-style="" opacity="1" y="14.56071363176602" transform="rotate(0)"><tspan id="SvgjsTspan2340" dy="16" x="37.89285714285715"><tspan id="SvgjsTspan2341" style="text-decoration:;">ve()=6</tspan></tspan></text></g></g><g id="SvgjsG2342" transform="translate(539.9196581159318,643.8690067909506)"><path id="SvgjsPath2343" d="M 6.714285714285722 0L 67.14285714285722 0L 67.14285714285722 50.37142726353204L 6.714285714285722 50.37142726353204L 6.714285714285722 40.297141810825636L 0 40.297141810825636L 0 30.222856358119223L 6.714285714285722 30.222856358119223L 6.714285714285722 20.148570905412818L 0 20.148570905412818L 0 10.074285452706409L 6.714285714285722 10.074285452706409L 6.714285714285722 0Z" stroke="rgba(50,50,50,1)" stroke-width="2" fill-opacity="1" fill="#ffffff"></path><path id="SvgjsPath2344" d="M 6.714285714285722 40.297141810825636L 13.428571428571445 40.297141810825636L 13.428571428571445 30.222856358119223L 6.714285714285722 30.222856358119223M 6.714285714285722 20.148570905412818L 13.428571428571445 20.148570905412818L 13.428571428571445 10.074285452706409L 6.714285714285722 10.074285452706409" stroke="rgba(50,50,50,1)" stroke-width="2" fill="none"></path><path id="SvgjsPath2345" d="M 6.714285714285722 0L 67.14285714285722 0L 67.14285714285722 50.37142726353204L 6.714285714285722 50.37142726353204L 6.714285714285722 40.297141810825636L 0 40.297141810825636L 0 30.222856358119223L 6.714285714285722 30.222856358119223L 6.714285714285722 20.148570905412818L 0 20.148570905412818L 0 10.074285452706409L 6.714285714285722 10.074285452706409L 6.714285714285722 0Z" stroke="none" fill="none"></path><g id="SvgjsG2346"><text id="SvgjsText2347" font-family="微软雅黑" text-anchor="middle" font-size="13px" width="49px" fill="#323232" font-weight="700" align="middle" lineHeight="125%" anchor="middle" family="微软雅黑" size="13px" weight="700" font-style="" opacity="1" y="14.56071363176602" transform="rotate(0)"><tspan id="SvgjsTspan2348" dy="16" x="37.89285714285715"><tspan id="SvgjsTspan2349" style="text-decoration:;">ve()=8</tspan></tspan></text></g></g></svg>