<svg id="SvgjsSvg1922" width="856.6124877929688" height="646.5875549316406" xmlns="http://www.w3.org/2000/svg" version="1.1" xmlns:xlink="http://www.w3.org/1999/xlink" xmlns:svgjs="http://svgjs.com/svgjs"><defs id="SvgjsDefs1923"><marker id="SvgjsMarker1934" markerWidth="14" markerHeight="10" refX="10" refY="5" viewBox="0 0 14 10" orient="auto" markerUnits="userSpaceOnUse" stroke-dasharray="0,0"><path id="SvgjsPath1935" d="M0,0 L14,5 L0,10 L0,0" fill="#323232" stroke="#323232" stroke-width="1"></path></marker><marker id="SvgjsMarker1942" markerWidth="14" markerHeight="10" refX="10" refY="5" viewBox="0 0 14 10" orient="auto" markerUnits="userSpaceOnUse" stroke-dasharray="0,0"><path id="SvgjsPath1943" d="M0,0 L14,5 L0,10 L0,0" fill="#323232" stroke="#323232" stroke-width="1"></path></marker><marker id="SvgjsMarker1950" markerWidth="14" markerHeight="10" refX="10" refY="5" viewBox="0 0 14 10" orient="auto" markerUnits="userSpaceOnUse" stroke-dasharray="0,0"><path id="SvgjsPath1951" d="M0,0 L14,5 L0,10 L0,0" fill="#323232" stroke="#323232" stroke-width="1"></path></marker><marker id="SvgjsMarker1954" markerWidth="14" markerHeight="10" refX="10" refY="5" viewBox="0 0 14 10" orient="auto" markerUnits="userSpaceOnUse" stroke-dasharray="0,0"><path id="SvgjsPath1955" d="M0,0 L14,5 L0,10 L0,0" fill="#323232" stroke="#323232" stroke-width="1"></path></marker><marker id="SvgjsMarker1962" markerWidth="14" markerHeight="10" refX="10" refY="5" viewBox="0 0 14 10" orient="auto" markerUnits="userSpaceOnUse" stroke-dasharray="0,0"><path id="SvgjsPath1963" d="M0,0 L14,5 L0,10 L0,0" fill="#323232" stroke="#323232" stroke-width="1"></path></marker><marker id="SvgjsMarker1970" markerWidth="14" markerHeight="10" refX="10" refY="5" viewBox="0 0 14 10" orient="auto" markerUnits="userSpaceOnUse" stroke-dasharray="0,0"><path id="SvgjsPath1971" d="M0,0 L14,5 L0,10 L0,0" fill="#323232" stroke="#323232" stroke-width="1"></path></marker><marker id="SvgjsMarker1974" markerWidth="14" markerHeight="10" refX="10" refY="5" viewBox="0 0 14 10" orient="auto" markerUnits="userSpaceOnUse" stroke-dasharray="0,0"><path id="SvgjsPath1975" d="M0,0 L14,5 L0,10 L0,0" fill="#323232" stroke="#323232" stroke-width="1"></path></marker><marker id="SvgjsMarker1978" markerWidth="14" markerHeight="10" refX="10" refY="5" viewBox="0 0 14 10" orient="auto" markerUnits="userSpaceOnUse" stroke-dasharray="0,0"><path id="SvgjsPath1979" d="M0,0 L14,5 L0,10 L0,0" fill="#323232" stroke="#323232" stroke-width="1"></path></marker><marker id="SvgjsMarker1994" markerWidth="14" markerHeight="10" refX="10" refY="5" viewBox="0 0 14 10" orient="auto" markerUnits="userSpaceOnUse" stroke-dasharray="0,0"><path id="SvgjsPath1995" d="M0,0 L14,5 L0,10 L0,0" fill="#323232" stroke="#323232" stroke-width="1"></path></marker><marker id="SvgjsMarker1998" markerWidth="14" markerHeight="10" refX="10" refY="5" viewBox="0 0 14 10" orient="auto" markerUnits="userSpaceOnUse" stroke-dasharray="0,0"><path id="SvgjsPath1999" d="M0,0 L14,5 L0,10 L0,0" fill="#323232" stroke="#323232" stroke-width="1"></path></marker><marker id="SvgjsMarker2006" markerWidth="14" markerHeight="10" refX="10" refY="5" viewBox="0 0 14 10" orient="auto" markerUnits="userSpaceOnUse" stroke-dasharray="0,0"><path id="SvgjsPath2007" d="M0,0 L14,5 L0,10 L0,0" fill="#323232" stroke="#323232" stroke-width="1"></path></marker><marker id="SvgjsMarker2014" markerWidth="14" markerHeight="10" refX="10" refY="5" viewBox="0 0 14 10" orient="auto" markerUnits="userSpaceOnUse" stroke-dasharray="0,0"><path id="SvgjsPath2015" d="M0,0 L14,5 L0,10 L0,0" fill="#323232" stroke="#323232" stroke-width="1"></path></marker><marker id="SvgjsMarker2018" markerWidth="14" markerHeight="10" refX="10" refY="5" viewBox="0 0 14 10" orient="auto" markerUnits="userSpaceOnUse" stroke-dasharray="0,0"><path id="SvgjsPath2019" d="M0,0 L14,5 L0,10 L0,0" fill="#323232" stroke="#323232" stroke-width="1"></path></marker><marker id="SvgjsMarker2022" markerWidth="14" markerHeight="10" refX="10" refY="5" viewBox="0 0 14 10" orient="auto" markerUnits="userSpaceOnUse" stroke-dasharray="0,0"><path id="SvgjsPath2023" d="M0,0 L14,5 L0,10 L0,0" fill="#323232" stroke="#323232" stroke-width="1"></path></marker><marker id="SvgjsMarker2034" markerWidth="14" markerHeight="10" refX="10" refY="5" viewBox="0 0 14 10" orient="auto" markerUnits="userSpaceOnUse" stroke-dasharray="0,0"><path id="SvgjsPath2035" d="M0,0 L14,5 L0,10 L0,0" fill="#323232" stroke="#323232" stroke-width="1"></path></marker><marker id="SvgjsMarker2046" markerWidth="14" markerHeight="10" refX="10" refY="5" viewBox="0 0 14 10" orient="auto" markerUnits="userSpaceOnUse" stroke-dasharray="0,0"><path id="SvgjsPath2047" d="M0,0 L14,5 L0,10 L0,0" fill="#323232" stroke="#323232" stroke-width="1"></path></marker><marker id="SvgjsMarker2050" markerWidth="14" markerHeight="10" refX="10" refY="5" viewBox="0 0 14 10" orient="auto" markerUnits="userSpaceOnUse" stroke-dasharray="0,0"><path id="SvgjsPath2051" d="M0,0 L14,5 L0,10 L0,0" fill="#323232" stroke="#323232" stroke-width="1"></path></marker><marker id="SvgjsMarker2054" markerWidth="14" markerHeight="10" refX="10" refY="5" viewBox="0 0 14 10" orient="auto" markerUnits="userSpaceOnUse" stroke-dasharray="0,0"><path id="SvgjsPath2055" d="M0,0 L14,5 L0,10 L0,0" fill="#323232" stroke="#323232" stroke-width="1"></path></marker><marker id="SvgjsMarker2070" markerWidth="14" markerHeight="10" refX="10" refY="5" viewBox="0 0 14 10" orient="auto" markerUnits="userSpaceOnUse" stroke-dasharray="0,0"><path id="SvgjsPath2071" d="M0,0 L14,5 L0,10 L0,0" fill="#323232" stroke="#323232" stroke-width="1"></path></marker><marker id="SvgjsMarker2074" markerWidth="14" markerHeight="10" refX="10" refY="5" viewBox="0 0 14 10" orient="auto" markerUnits="userSpaceOnUse" stroke-dasharray="0,0"><path id="SvgjsPath2075" d="M0,0 L14,5 L0,10 L0,0" fill="#323232" stroke="#323232" stroke-width="1"></path></marker><marker id="SvgjsMarker2086" markerWidth="14" markerHeight="10" refX="10" refY="5" viewBox="0 0 14 10" orient="auto" markerUnits="userSpaceOnUse" stroke-dasharray="0,0"><path id="SvgjsPath2087" d="M0,0 L14,5 L0,10 L0,0" fill="#323232" stroke="#323232" stroke-width="1"></path></marker></defs><g id="SvgjsG1924" transform="translate(25.012466430664062,131.6793717682816)"><path id="SvgjsPath1925" d="M 0 20.537404497161166C 0 -6.845801499053722 40.39285714285714 -6.845801499053722 40.39285714285714 20.537404497161166C 40.39285714285714 47.92061049337605 0 47.92061049337605 0 20.537404497161166Z" stroke="rgba(50,50,50,1)" stroke-width="2" fill-opacity="1" fill="#c8e6c9"></path><g id="SvgjsG1926"><text id="SvgjsText1927" font-family="&quot;Times New Roman&quot;" text-anchor="middle" font-size="21px" width="21px" fill="#323232" font-weight="400" align="middle" lineHeight="125%" anchor="middle" family="&quot;Times New Roman&quot;" size="21px" weight="400" font-style="" opacity="1" y="1.912404497161166" transform="rotate(0)"></text></g></g><g id="SvgjsG1928" transform="translate(96.58577470134077,55.29463925252435)"><path id="SvgjsPath1929" d="M 0 20.537404497161166C 0 -6.845801499053722 40.39285714285714 -6.845801499053722 40.39285714285714 20.537404497161166C 40.39285714285714 47.92061049337605 0 47.92061049337605 0 20.537404497161166Z" stroke="rgba(50,50,50,1)" stroke-width="2" fill-opacity="1" fill="#ffffff"></path><g id="SvgjsG1930"><text id="SvgjsText1931" font-family="&quot;Times New Roman&quot;" text-anchor="middle" font-size="21px" width="21px" fill="#323232" font-weight="400" align="middle" lineHeight="125%" anchor="middle" family="&quot;Times New Roman&quot;" size="21px" weight="400" font-style="" opacity="1" y="1.912404497161166" transform="rotate(0)"></text></g></g><g id="SvgjsG1932"><path id="SvgjsPath1933" d="M57.07654186513295 134.16359692534616L98.16150433699048 90.55349730274293" stroke="#323232" stroke-width="2" fill="none" marker-end="url(#SvgjsMarker1934)"></path></g><g id="SvgjsG1936" transform="translate(108.63276718254377,185.72517307660053)"><path id="SvgjsPath1937" d="M 0 20.537404497161166C 0 -6.845801499053722 40.39285714285714 -6.845801499053722 40.39285714285714 20.537404497161166C 40.39285714285714 47.92061049337605 0 47.92061049337605 0 20.537404497161166Z" stroke="rgba(50,50,50,1)" stroke-width="2" fill-opacity="1" fill="#ffffff"></path><g id="SvgjsG1938"><text id="SvgjsText1939" font-family="&quot;Times New Roman&quot;" text-anchor="middle" font-size="21px" width="21px" fill="#323232" font-weight="400" align="middle" lineHeight="125%" anchor="middle" family="&quot;Times New Roman&quot;" size="21px" weight="400" font-style="" opacity="1" y="1.912404497161166" transform="rotate(0)"></text></g></g><g id="SvgjsG1940"><path id="SvgjsPath1941" d="M62.79114800909903 163.57752427221328L108.19895422355205 193.6049583423902" stroke="#323232" stroke-width="2" fill="none" marker-end="url(#SvgjsMarker1942)"></path></g><g id="SvgjsG1944" transform="translate(200.75682733291967,115.10532603373053)"><path id="SvgjsPath1945" d="M 0 20.537404497161166C 0 -6.845801499053722 40.39285714285714 -6.845801499053722 40.39285714285714 20.537404497161166C 40.39285714285714 47.92061049337605 0 47.92061049337605 0 20.537404497161166Z" stroke="rgba(50,50,50,1)" stroke-width="2" fill-opacity="1" fill="#ffffff"></path><g id="SvgjsG1946"><text id="SvgjsText1947" font-family="&quot;Times New Roman&quot;" text-anchor="middle" font-size="21px" width="21px" fill="#323232" font-weight="400" align="middle" lineHeight="125%" anchor="middle" family="&quot;Times New Roman&quot;" size="21px" weight="400" font-style="" opacity="1" y="1.912404497161166" transform="rotate(0)"></text></g></g><g id="SvgjsG1948"><path id="SvgjsPath1949" d="M146.54522664112312 194.2664231484698L203.04960137120514 151.48431534663212" stroke="#323232" stroke-width="2" fill="none" marker-end="url(#SvgjsMarker1950)"></path></g><g id="SvgjsG1952"><path id="SvgjsPath1953" d="M137.2398688856618 80.9777801757192L204.39551982885502 118.44197347251668" stroke="#323232" stroke-width="2" fill="none" marker-end="url(#SvgjsMarker1954)"></path></g><g id="SvgjsG1956" transform="translate(279.41660176900996,37.999982833862305)"><path id="SvgjsPath1957" d="M 0 20.537404497161166C 0 -6.845801499053722 40.39285714285714 -6.845801499053722 40.39285714285714 20.537404497161166C 40.39285714285714 47.92061049337605 0 47.92061049337605 0 20.537404497161166Z" stroke="rgba(50,50,50,1)" stroke-width="2" fill-opacity="1" fill="#ffffff"></path><g id="SvgjsG1958"><text id="SvgjsText1959" font-family="&quot;Times New Roman&quot;" text-anchor="middle" font-size="21px" width="21px" fill="#323232" font-weight="400" align="middle" lineHeight="125%" anchor="middle" family="&quot;Times New Roman&quot;" size="21px" weight="400" font-style="" opacity="1" y="1.912404497161166" transform="rotate(0)"></text></g></g><g id="SvgjsG1960"><path id="SvgjsPath1961" d="M135.18533809264267 66.29654392627583L275.82179982925055 58.730775577569716" stroke="#323232" stroke-width="2" fill="none" marker-end="url(#SvgjsMarker1962)"></path></g><g id="SvgjsG1964" transform="translate(361.61960928780695,121.59082219072877)"><path id="SvgjsPath1965" d="M 0 20.537404497161166C 0 -6.845801499053722 40.39285714285714 -6.845801499053722 40.39285714285714 20.537404497161166C 40.39285714285714 47.92061049337605 0 47.92061049337605 0 20.537404497161166Z" stroke="rgba(50,50,50,1)" stroke-width="2" fill-opacity="1" fill="#ffe0b2"></path><g id="SvgjsG1966"><text id="SvgjsText1967" font-family="&quot;Times New Roman&quot;" text-anchor="middle" font-size="21px" width="21px" fill="#323232" font-weight="400" align="middle" lineHeight="125%" anchor="middle" family="&quot;Times New Roman&quot;" size="21px" weight="400" font-style="" opacity="1" y="1.912404497161166" transform="rotate(0)"></text></g></g><g id="SvgjsG1968"><path id="SvgjsPath1969" d="M149.9937924896717 206.01227694313422L360.1652031017455 151.67663716747995" stroke="#323232" stroke-width="2" fill="none" marker-end="url(#SvgjsMarker1970)"></path></g><g id="SvgjsG1972"><path id="SvgjsPath1973" d="M242.148238515427 135.69648766900582L358.0248147450661 141.93470099067952" stroke="#323232" stroke-width="2" fill="none" marker-end="url(#SvgjsMarker1974)"></path></g><g id="SvgjsG1976"><path id="SvgjsPath1977" d="M317.3247707321355 69.9261524044183L366.59225071134256 123.91458889263401" stroke="#323232" stroke-width="2" fill="none" marker-end="url(#SvgjsMarker1978)"></path></g><g id="SvgjsG1980" transform="translate(526.5857747013408,42.29463925252435)"><path id="SvgjsPath1981" d="M 0 20.537404497161166C 0 -6.845801499053722 40.39285714285714 -6.845801499053722 40.39285714285714 20.537404497161166C 40.39285714285714 47.92061049337605 0 47.92061049337605 0 20.537404497161166Z" stroke="rgba(50,50,50,1)" stroke-width="2" fill-opacity="1" fill="#c8e6c9"></path><g id="SvgjsG1982"><text id="SvgjsText1983" font-family="&quot;Times New Roman&quot;" text-anchor="middle" font-size="21px" width="21px" fill="#323232" font-weight="400" align="middle" lineHeight="125%" anchor="middle" family="&quot;Times New Roman&quot;" size="21px" weight="400" font-style="" opacity="1" y="1.912404497161166" transform="rotate(0)"></text></g></g><g id="SvgjsG1984" transform="translate(538.6327671825438,172.72517307660053)"><path id="SvgjsPath1985" d="M 0 20.537404497161166C 0 -6.845801499053722 40.39285714285714 -6.845801499053722 40.39285714285714 20.537404497161166C 40.39285714285714 47.92061049337605 0 47.92061049337605 0 20.537404497161166Z" stroke="rgba(50,50,50,1)" stroke-width="2" fill-opacity="1" fill="#c8e6c9"></path><g id="SvgjsG1986"><text id="SvgjsText1987" font-family="&quot;Times New Roman&quot;" text-anchor="middle" font-size="21px" width="21px" fill="#323232" font-weight="400" align="middle" lineHeight="125%" anchor="middle" family="&quot;Times New Roman&quot;" size="21px" weight="400" font-style="" opacity="1" y="1.912404497161166" transform="rotate(0)"></text></g></g><g id="SvgjsG1988" transform="translate(630.7568273329197,102.10532603373053)"><path id="SvgjsPath1989" d="M 0 20.537404497161166C 0 -6.845801499053722 40.39285714285714 -6.845801499053722 40.39285714285714 20.537404497161166C 40.39285714285714 47.92061049337605 0 47.92061049337605 0 20.537404497161166Z" stroke="rgba(50,50,50,1)" stroke-width="2" fill-opacity="1" fill="#ffffff"></path><g id="SvgjsG1990"><text id="SvgjsText1991" font-family="&quot;Times New Roman&quot;" text-anchor="middle" font-size="21px" width="21px" fill="#323232" font-weight="400" align="middle" lineHeight="125%" anchor="middle" family="&quot;Times New Roman&quot;" size="21px" weight="400" font-style="" opacity="1" y="1.912404497161166" transform="rotate(0)"></text></g></g><g id="SvgjsG1992"><path id="SvgjsPath1993" d="M576.545226641123 181.2664231484698L633.0496013712052 138.48431534663212" stroke="#323232" stroke-width="2" fill="none" marker-end="url(#SvgjsMarker1994)"></path></g><g id="SvgjsG1996"><path id="SvgjsPath1997" d="M567.2398688856618 67.9777801757192L634.3955198288551 105.44197347251668" stroke="#323232" stroke-width="2" fill="none" marker-end="url(#SvgjsMarker1998)"></path></g><g id="SvgjsG2000" transform="translate(709.41660176901,24.999982833862305)"><path id="SvgjsPath2001" d="M 0 20.537404497161166C 0 -6.845801499053722 40.39285714285714 -6.845801499053722 40.39285714285714 20.537404497161166C 40.39285714285714 47.92061049337605 0 47.92061049337605 0 20.537404497161166Z" stroke="rgba(50,50,50,1)" stroke-width="2" fill-opacity="1" fill="#ffffff"></path><g id="SvgjsG2002"><text id="SvgjsText2003" font-family="&quot;Times New Roman&quot;" text-anchor="middle" font-size="21px" width="21px" fill="#323232" font-weight="400" align="middle" lineHeight="125%" anchor="middle" family="&quot;Times New Roman&quot;" size="21px" weight="400" font-style="" opacity="1" y="1.912404497161166" transform="rotate(0)"></text></g></g><g id="SvgjsG2004"><path id="SvgjsPath2005" d="M565.1853380926427 53.29654392627583L705.8217998292506 45.730775577569716" stroke="#323232" stroke-width="2" fill="none" marker-end="url(#SvgjsMarker2006)"></path></g><g id="SvgjsG2008" transform="translate(791.619609287807,108.59082219072877)"><path id="SvgjsPath2009" d="M 0 20.537404497161166C 0 -6.845801499053722 40.39285714285714 -6.845801499053722 40.39285714285714 20.537404497161166C 40.39285714285714 47.92061049337605 0 47.92061049337605 0 20.537404497161166Z" stroke="rgba(50,50,50,1)" stroke-width="2" fill-opacity="1" fill="#ffe0b2"></path><g id="SvgjsG2010"><text id="SvgjsText2011" font-family="&quot;Times New Roman&quot;" text-anchor="middle" font-size="21px" width="21px" fill="#323232" font-weight="400" align="middle" lineHeight="125%" anchor="middle" family="&quot;Times New Roman&quot;" size="21px" weight="400" font-style="" opacity="1" y="1.912404497161166" transform="rotate(0)"></text></g></g><g id="SvgjsG2012"><path id="SvgjsPath2013" d="M579.9937924896717 193.01227694313422L790.1652031017455 138.67663716747995" stroke="#323232" stroke-width="2" fill="none" marker-end="url(#SvgjsMarker2014)"></path></g><g id="SvgjsG2016"><path id="SvgjsPath2017" d="M672.148238515427 122.69648766900582L788.0248147450661 128.93470099067952" stroke="#323232" stroke-width="2" fill="none" marker-end="url(#SvgjsMarker2018)"></path></g><g id="SvgjsG2020"><path id="SvgjsPath2021" d="M747.3247707321354 56.9261524044183L796.5922507113426 110.91458889263401" stroke="#323232" stroke-width="2" fill="none" marker-end="url(#SvgjsMarker2022)"></path></g><g id="SvgjsG2024" transform="translate(504.2634062802881,422.5908221907288)"><path id="SvgjsPath2025" d="M 0 20.537404497161166C 0 -6.845801499053722 40.39285714285714 -6.845801499053722 40.39285714285714 20.537404497161166C 40.39285714285714 47.92061049337605 0 47.92061049337605 0 20.537404497161166Z" stroke="rgba(50,50,50,1)" stroke-width="2" fill-opacity="1" fill="#c8e6c9"></path><g id="SvgjsG2026"><text id="SvgjsText2027" font-family="&quot;Times New Roman&quot;" text-anchor="middle" font-size="21px" width="21px" fill="#323232" font-weight="400" align="middle" lineHeight="125%" anchor="middle" family="&quot;Times New Roman&quot;" size="21px" weight="400" font-style="" opacity="1" y="1.912404497161166" transform="rotate(0)"></text></g></g><g id="SvgjsG2028" transform="translate(596.387466430664,351.9709751478588)"><path id="SvgjsPath2029" d="M 0 20.537404497161166C 0 -6.845801499053722 40.39285714285714 -6.845801499053722 40.39285714285714 20.537404497161166C 40.39285714285714 47.92061049337605 0 47.92061049337605 0 20.537404497161166Z" stroke="rgba(50,50,50,1)" stroke-width="2" fill-opacity="1" fill="#ffffff"></path><g id="SvgjsG2030"><text id="SvgjsText2031" font-family="&quot;Times New Roman&quot;" text-anchor="middle" font-size="21px" width="21px" fill="#323232" font-weight="400" align="middle" lineHeight="125%" anchor="middle" family="&quot;Times New Roman&quot;" size="21px" weight="400" font-style="" opacity="1" y="1.912404497161166" transform="rotate(0)"></text></g></g><g id="SvgjsG2032"><path id="SvgjsPath2033" d="M542.1758657388673 431.13207226259806L598.6802404689495 388.34996446076036" stroke="#323232" stroke-width="2" fill="none" marker-end="url(#SvgjsMarker2034)"></path></g><g id="SvgjsG2036" transform="translate(675.0472408667542,274.86563194799055)"><path id="SvgjsPath2037" d="M 0 20.537404497161166C 0 -6.845801499053722 40.39285714285714 -6.845801499053722 40.39285714285714 20.537404497161166C 40.39285714285714 47.92061049337605 0 47.92061049337605 0 20.537404497161166Z" stroke="rgba(50,50,50,1)" stroke-width="2" fill-opacity="1" fill="#c8e6c9"></path><g id="SvgjsG2038"><text id="SvgjsText2039" font-family="&quot;Times New Roman&quot;" text-anchor="middle" font-size="21px" width="21px" fill="#323232" font-weight="400" align="middle" lineHeight="125%" anchor="middle" family="&quot;Times New Roman&quot;" size="21px" weight="400" font-style="" opacity="1" y="1.912404497161166" transform="rotate(0)"></text></g></g><g id="SvgjsG2040" transform="translate(757.2502483855512,358.456471304857)"><path id="SvgjsPath2041" d="M 0 20.537404497161166C 0 -6.845801499053722 40.39285714285714 -6.845801499053722 40.39285714285714 20.537404497161166C 40.39285714285714 47.92061049337605 0 47.92061049337605 0 20.537404497161166Z" stroke="rgba(50,50,50,1)" stroke-width="2" fill-opacity="1" fill="#ffe0b2"></path><g id="SvgjsG2042"><text id="SvgjsText2043" font-family="&quot;Times New Roman&quot;" text-anchor="middle" font-size="21px" width="21px" fill="#323232" font-weight="400" align="middle" lineHeight="125%" anchor="middle" family="&quot;Times New Roman&quot;" size="21px" weight="400" font-style="" opacity="1" y="1.912404497161166" transform="rotate(0)"></text></g></g><g id="SvgjsG2044"><path id="SvgjsPath2045" d="M545.624431587416 442.87792605726247L755.7958421994898 388.5422862816082" stroke="#323232" stroke-width="2" fill="none" marker-end="url(#SvgjsMarker2046)"></path></g><g id="SvgjsG2048"><path id="SvgjsPath2049" d="M637.7788776131713 372.56213678313406L753.6554538428104 378.80035010480776" stroke="#323232" stroke-width="2" fill="none" marker-end="url(#SvgjsMarker2050)"></path></g><g id="SvgjsG2052"><path id="SvgjsPath2053" d="M712.9554098298797 306.79180151854655L762.222889809087 360.78023800676226" stroke="#323232" stroke-width="2" fill="none" marker-end="url(#SvgjsMarker2054)"></path></g><g id="SvgjsG2056" transform="translate(120.32543635547603,375.0305170394082)"><path id="SvgjsPath2057" d="M 0 20.537404497161166C 0 -6.845801499053722 40.39285714285714 -6.845801499053722 40.39285714285714 20.537404497161166C 40.39285714285714 47.92061049337605 0 47.92061049337605 0 20.537404497161166Z" stroke="rgba(50,50,50,1)" stroke-width="2" fill-opacity="1" fill="#c8e6c9"></path><g id="SvgjsG2058"><text id="SvgjsText2059" font-family="&quot;Times New Roman&quot;" text-anchor="middle" font-size="21px" width="21px" fill="#323232" font-weight="400" align="middle" lineHeight="125%" anchor="middle" family="&quot;Times New Roman&quot;" size="21px" weight="400" font-style="" opacity="1" y="1.912404497161166" transform="rotate(0)"></text></g></g><g id="SvgjsG2060" transform="translate(198.98521079156632,297.92517383954)"><path id="SvgjsPath2061" d="M 0 20.537404497161166C 0 -6.845801499053722 40.39285714285714 -6.845801499053722 40.39285714285714 20.537404497161166C 40.39285714285714 47.92061049337605 0 47.92061049337605 0 20.537404497161166Z" stroke="rgba(50,50,50,1)" stroke-width="2" fill-opacity="1" fill="#c8e6c9"></path><g id="SvgjsG2062"><text id="SvgjsText2063" font-family="&quot;Times New Roman&quot;" text-anchor="middle" font-size="21px" width="21px" fill="#323232" font-weight="400" align="middle" lineHeight="125%" anchor="middle" family="&quot;Times New Roman&quot;" size="21px" weight="400" font-style="" opacity="1" y="1.912404497161166" transform="rotate(0)"></text></g></g><g id="SvgjsG2064" transform="translate(281.1882183103633,381.51601319640645)"><path id="SvgjsPath2065" d="M 0 20.537404497161166C 0 -6.845801499053722 40.39285714285714 -6.845801499053722 40.39285714285714 20.537404497161166C 40.39285714285714 47.92061049337605 0 47.92061049337605 0 20.537404497161166Z" stroke="rgba(50,50,50,1)" stroke-width="2" fill-opacity="1" fill="#ffe0b2"></path><g id="SvgjsG2066"><text id="SvgjsText2067" font-family="&quot;Times New Roman&quot;" text-anchor="middle" font-size="21px" width="21px" fill="#323232" font-weight="400" align="middle" lineHeight="125%" anchor="middle" family="&quot;Times New Roman&quot;" size="21px" weight="400" font-style="" opacity="1" y="1.912404497161166" transform="rotate(0)"></text></g></g><g id="SvgjsG2068"><path id="SvgjsPath2069" d="M161.71684753798337 395.6216786746835L277.5934237676225 401.8598919963572" stroke="#323232" stroke-width="2" fill="none" marker-end="url(#SvgjsMarker2070)"></path></g><g id="SvgjsG2072"><path id="SvgjsPath2073" d="M236.8933797546918 329.851343410096L286.16085973389903 383.8397798983117" stroke="#323232" stroke-width="2" fill="none" marker-end="url(#SvgjsMarker2074)"></path></g><g id="SvgjsG2076" transform="translate(118.55381981412273,575.1053260337303)"><path id="SvgjsPath2077" d="M 0 20.537404497161166C 0 -6.845801499053722 40.39285714285714 -6.845801499053722 40.39285714285714 20.537404497161166C 40.39285714285714 47.92061049337605 0 47.92061049337605 0 20.537404497161166Z" stroke="rgba(50,50,50,1)" stroke-width="2" fill-opacity="1" fill="#c8e6c9"></path><g id="SvgjsG2078"><text id="SvgjsText2079" font-family="&quot;Times New Roman&quot;" text-anchor="middle" font-size="21px" width="21px" fill="#323232" font-weight="400" align="middle" lineHeight="125%" anchor="middle" family="&quot;Times New Roman&quot;" size="21px" weight="400" font-style="" opacity="1" y="1.912404497161166" transform="rotate(0)"></text></g></g><g id="SvgjsG2080" transform="translate(279.41660176901,580.5908221907289)"><path id="SvgjsPath2081" d="M 0 20.537404497161166C 0 -6.845801499053722 40.39285714285714 -6.845801499053722 40.39285714285714 20.537404497161166C 40.39285714285714 47.92061049337605 0 47.92061049337605 0 20.537404497161166Z" stroke="rgba(50,50,50,1)" stroke-width="2" fill-opacity="1" fill="#ffe0b2"></path><g id="SvgjsG2082"><text id="SvgjsText2083" font-family="&quot;Times New Roman&quot;" text-anchor="middle" font-size="21px" width="21px" fill="#323232" font-weight="400" align="middle" lineHeight="125%" anchor="middle" family="&quot;Times New Roman&quot;" size="21px" weight="400" font-style="" opacity="1" y="1.912404497161166" transform="rotate(0)"></text></g></g><g id="SvgjsG2084"><path id="SvgjsPath2085" d="M159.945641886648 595.6882175542398L275.8203280222046 600.9644734038366" stroke="#323232" stroke-width="2" fill="none" marker-end="url(#SvgjsMarker2086)"></path></g><g id="SvgjsG2088" transform="translate(538.6327671825438,565.3908405012755)"><path id="SvgjsPath2089" d="M 0 20.537404497161166C 0 -6.845801499053722 40.39285714285714 -6.845801499053722 40.39285714285714 20.537404497161166C 40.39285714285714 47.92061049337605 0 47.92061049337605 0 20.537404497161166Z" stroke="rgba(50,50,50,1)" stroke-width="2" fill-opacity="1" fill="#ffe0b2"></path><g id="SvgjsG2090"><text id="SvgjsText2091" font-family="&quot;Times New Roman&quot;" text-anchor="middle" font-size="21px" width="21px" fill="#323232" font-weight="400" align="middle" lineHeight="125%" anchor="middle" family="&quot;Times New Roman&quot;" size="21px" weight="400" font-style="" opacity="1" y="1.912404497161166" transform="rotate(0)"></text></g></g><g id="SvgjsG2092" transform="translate(445.01246643066406,108.12822668788999)"><path id="SvgjsPath2093" d="M 0 13.860000000000001L 28 13.860000000000001L 28 0L 49 21L 28 42L 28 28.14L 0 28.14L 0 13.860000000000001Z" stroke="rgba(50,50,50,1)" stroke-width="2" fill-opacity="1" fill="#ffffff"></path><g id="SvgjsG2094"><text id="SvgjsText2095" font-family="微软雅黑" text-anchor="middle" font-size="13px" width="49px" fill="#323232" font-weight="400" align="middle" lineHeight="125%" anchor="middle" family="微软雅黑" size="13px" weight="400" font-style="" opacity="1" y="10.375000000000002" transform="rotate(0)"></text></g></g><g id="SvgjsG2096" transform="matrix(6.123233995736766e-17,1,-1,6.123233995736766e-17,663.887451171875,217.6282196044922)"><path id="SvgjsPath2097" d="M 0 13.860000000000001L 28 13.860000000000001L 28 0L 49 21L 28 42L 28 28.14L 0 28.14L 0 13.860000000000001Z" stroke="rgba(50,50,50,1)" stroke-width="2" fill-opacity="1" fill="#ffffff"></path><g id="SvgjsG2098"><text id="SvgjsText2099" font-family="微软雅黑" text-anchor="middle" font-size="13px" width="49px" fill="#323232" font-weight="400" align="middle" lineHeight="125%" anchor="middle" family="微软雅黑" size="13px" weight="400" font-style="" opacity="1" y="10.375000000000002" transform="rotate(0)"></text></g></g><g id="SvgjsG2100" transform="matrix(-1,1.2246467991473532e-16,-1.2246467991473532e-16,-1,438.2680969238281,392.1053161621094)"><path id="SvgjsPath2101" d="M 0 13.860000000000001L 28 13.860000000000001L 28 0L 49 21L 28 42L 28 28.14L 0 28.14L 0 13.860000000000001Z" stroke="rgba(50,50,50,1)" stroke-width="2" fill-opacity="1" fill="#ffffff"></path><g id="SvgjsG2102"><text id="SvgjsText2103" font-family="微软雅黑" text-anchor="middle" font-size="13px" width="49px" fill="#323232" font-weight="400" align="middle" lineHeight="125%" anchor="middle" family="微软雅黑" size="13px" weight="400" font-style="" opacity="1" y="10.375000000000002" transform="rotate(0)"></text></g></g><g id="SvgjsG2104" transform="matrix(6.123233995736766e-17,1,-1,6.123233995736766e-17,240.181640625,502.8282470703125)"><path id="SvgjsPath2105" d="M 0 13.860000000000001L 28 13.860000000000001L 28 0L 49 21L 28 42L 28 28.14L 0 28.14L 0 13.860000000000001Z" stroke="rgba(50,50,50,1)" stroke-width="2" fill-opacity="1" fill="#ffffff"></path><g id="SvgjsG2106"><text id="SvgjsText2107" font-family="微软雅黑" text-anchor="middle" font-size="13px" width="49px" fill="#323232" font-weight="400" align="middle" lineHeight="125%" anchor="middle" family="微软雅黑" size="13px" weight="400" font-style="" opacity="1" y="10.375000000000002" transform="rotate(0)"></text></g></g><g id="SvgjsG2108" transform="translate(402.01246643066406,564.9282449984369)"><path id="SvgjsPath2109" d="M 0 13.860000000000001L 28 13.860000000000001L 28 0L 49 21L 28 42L 28 28.14L 0 28.14L 0 13.860000000000001Z" stroke="rgba(50,50,50,1)" stroke-width="2" fill-opacity="1" fill="#ffffff"></path><g id="SvgjsG2110"><text id="SvgjsText2111" font-family="微软雅黑" text-anchor="middle" font-size="13px" width="49px" fill="#323232" font-weight="400" align="middle" lineHeight="125%" anchor="middle" family="微软雅黑" size="13px" weight="400" font-style="" opacity="1" y="10.375000000000002" transform="rotate(0)"></text></g></g></svg>