<svg id="SvgjsSvg1006" width="724" height="501" xmlns="http://www.w3.org/2000/svg" version="1.1" xmlns:xlink="http://www.w3.org/1999/xlink" xmlns:svgjs="http://svgjs.com/svgjs"><defs id="SvgjsDefs1007"><marker id="SvgjsMarker1034" markerWidth="14" markerHeight="10" refX="10" refY="5" viewBox="0 0 14 10" orient="auto" markerUnits="userSpaceOnUse" stroke-dasharray="0,0"><path id="SvgjsPath1035" d="M0,0 L14,5 L0,10 L0,0" fill="#323232" stroke="#323232" stroke-width="1"></path></marker><marker id="SvgjsMarker1038" markerWidth="14" markerHeight="10" refX="10" refY="5" viewBox="0 0 14 10" orient="auto" markerUnits="userSpaceOnUse" stroke-dasharray="0,0"><path id="SvgjsPath1039" d="M0,0 L14,5 L0,10 L0,0" fill="#323232" stroke="#323232" stroke-width="1"></path></marker><marker id="SvgjsMarker1042" markerWidth="14" markerHeight="10" refX="10" refY="5" viewBox="0 0 14 10" orient="auto" markerUnits="userSpaceOnUse" stroke-dasharray="0,0"><path id="SvgjsPath1043" d="M0,0 L14,5 L0,10 L0,0" fill="#323232" stroke="#323232" stroke-width="1"></path></marker><marker id="SvgjsMarker1046" markerWidth="14" markerHeight="10" refX="10" refY="5" viewBox="0 0 14 10" orient="auto" markerUnits="userSpaceOnUse" stroke-dasharray="0,0"><path id="SvgjsPath1047" d="M0,0 L14,5 L0,10 L0,0" fill="#323232" stroke="#323232" stroke-width="1"></path></marker><marker id="SvgjsMarker1056" markerWidth="14" markerHeight="10" refX="10" refY="5" viewBox="0 0 14 10" orient="auto" markerUnits="userSpaceOnUse" stroke-dasharray="0,0"><path id="SvgjsPath1057" d="M0,0 L14,5 L0,10 L0,0" fill="#323232" stroke="#323232" stroke-width="1"></path></marker><marker id="SvgjsMarker1066" markerWidth="14" markerHeight="10" refX="10" refY="5" viewBox="0 0 14 10" orient="auto" markerUnits="userSpaceOnUse" stroke-dasharray="0,0"><path id="SvgjsPath1067" d="M0,0 L14,5 L0,10 L0,0" fill="#323232" stroke="#323232" stroke-width="1"></path></marker><marker id="SvgjsMarker1076" markerWidth="14" markerHeight="10" refX="10" refY="5" viewBox="0 0 14 10" orient="auto" markerUnits="userSpaceOnUse" stroke-dasharray="0,0"><path id="SvgjsPath1077" d="M0,0 L14,5 L0,10 L0,0" fill="#323232" stroke="#323232" stroke-width="1"></path></marker><marker id="SvgjsMarker1086" markerWidth="14" markerHeight="10" refX="10" refY="5" viewBox="0 0 14 10" orient="auto" markerUnits="userSpaceOnUse" stroke-dasharray="0,0"><path id="SvgjsPath1087" d="M0,0 L14,5 L0,10 L0,0" fill="#323232" stroke="#323232" stroke-width="1"></path></marker><marker id="SvgjsMarker1102" markerWidth="14" markerHeight="10" refX="10" refY="5" viewBox="0 0 14 10" orient="auto" markerUnits="userSpaceOnUse" stroke-dasharray="0,0"><path id="SvgjsPath1103" d="M0,0 L14,5 L0,10 L0,0" fill="#323232" stroke="#323232" stroke-width="1"></path></marker></defs><g id="SvgjsG1008" transform="translate(214,25)"><path id="SvgjsPath1009" d="M 0 28.5C 0 -9.5 57 -9.5 57 28.5C 57 66.5 0 66.5 0 28.5Z" stroke="rgba(50,50,50,1)" stroke-width="2" fill-opacity="1" fill="#ffffff"></path><g id="SvgjsG1010"><text id="SvgjsText1011" font-family="&quot;Times New Roman&quot;" text-anchor="middle" font-size="21px" width="37px" fill="#323232" font-weight="400" align="middle" lineHeight="125%" anchor="middle" family="&quot;Times New Roman&quot;" size="21px" weight="400" font-style="" opacity="1" y="9.875" transform="rotate(0)"><tspan id="SvgjsTspan1012" dy="26" x="28.5"><tspan id="SvgjsTspan1013" style="text-decoration:;">0</tspan></tspan></text></g></g><g id="SvgjsG1014" transform="translate(151,106)"><path id="SvgjsPath1015" d="M 0 28.5C 0 -9.5 57 -9.5 57 28.5C 57 66.5 0 66.5 0 28.5Z" stroke="rgba(50,50,50,1)" stroke-width="2" fill-opacity="1" fill="#ffffff"></path><g id="SvgjsG1016"><text id="SvgjsText1017" font-family="&quot;Times New Roman&quot;" text-anchor="middle" font-size="21px" width="37px" fill="#323232" font-weight="400" align="middle" lineHeight="125%" anchor="middle" family="&quot;Times New Roman&quot;" size="21px" weight="400" font-style="" opacity="1" y="9.875" transform="rotate(0)"><tspan id="SvgjsTspan1018" dy="26" x="28.5"><tspan id="SvgjsTspan1019" style="text-decoration:;">1</tspan></tspan></text></g></g><g id="SvgjsG1020" transform="translate(214,106)"><path id="SvgjsPath1021" d="M 0 28.5C 0 -9.5 57 -9.5 57 28.5C 57 66.5 0 66.5 0 28.5Z" stroke="rgba(50,50,50,1)" stroke-width="2" fill-opacity="1" fill="#ffffff"></path><g id="SvgjsG1022"><text id="SvgjsText1023" font-family="&quot;Times New Roman&quot;" text-anchor="middle" font-size="21px" width="37px" fill="#323232" font-weight="400" align="middle" lineHeight="125%" anchor="middle" family="&quot;Times New Roman&quot;" size="21px" weight="400" font-style="" opacity="1" y="9.875" transform="rotate(0)"><tspan id="SvgjsTspan1024" dy="26" x="28.5"><tspan id="SvgjsTspan1025" style="text-decoration:;">5</tspan></tspan></text></g></g><g id="SvgjsG1026" transform="translate(277,106)"><path id="SvgjsPath1027" d="M 0 28.5C 0 -9.5 57 -9.5 57 28.5C 57 66.5 0 66.5 0 28.5Z" stroke="rgba(50,50,50,1)" stroke-width="2" fill-opacity="1" fill="#ffffff"></path><g id="SvgjsG1028"><text id="SvgjsText1029" font-family="&quot;Times New Roman&quot;" text-anchor="middle" font-size="21px" width="37px" fill="#323232" font-weight="400" align="middle" lineHeight="125%" anchor="middle" family="&quot;Times New Roman&quot;" size="21px" weight="400" font-style="" opacity="1" y="9.875" transform="rotate(0)"><tspan id="SvgjsTspan1030" dy="26" x="28.5"><tspan id="SvgjsTspan1031" style="text-decoration:;">6</tspan></tspan></text></g></g><g id="SvgjsG1032"><path id="SvgjsPath1033" d="M221.96731813021051 74.73293360190566L196.7323376926222 108.04531131796031" stroke="#323232" stroke-width="2" fill="none" marker-end="url(#SvgjsMarker1034)"></path></g><g id="SvgjsG1036"><path id="SvgjsPath1037" d="M242.5 83L242.5 102.4" stroke="#323232" stroke-width="2" fill="none" marker-end="url(#SvgjsMarker1038)"></path></g><g id="SvgjsG1040"><path id="SvgjsPath1041" d="M264.3677202740971 73.20914787001023L302.68503818870727 103.75589884342006" stroke="#323232" stroke-width="2" fill="none" marker-end="url(#SvgjsMarker1042)"></path></g><g id="SvgjsG1044"><path id="SvgjsPath1045" d="M242.5 164L242.5 200" stroke="#323232" stroke-width="2" fill="none" marker-end="url(#SvgjsMarker1046)"></path></g><g id="SvgjsG1048" transform="translate(214,197)"><path id="SvgjsPath1049" d="M 0 28.5C 0 -9.5 57 -9.5 57 28.5C 57 66.5 0 66.5 0 28.5Z" stroke="rgba(50,50,50,1)" stroke-width="2" fill-opacity="1" fill="#ffffff"></path><g id="SvgjsG1050"><text id="SvgjsText1051" font-family="&quot;Times New Roman&quot;" text-anchor="middle" font-size="21px" width="37px" fill="#323232" font-weight="400" align="middle" lineHeight="125%" anchor="middle" family="&quot;Times New Roman&quot;" size="21px" weight="400" font-style="" opacity="1" y="9.875" transform="rotate(0)"><tspan id="SvgjsTspan1052" dy="26" x="28.5"><tspan id="SvgjsTspan1053" style="text-decoration:;">4</tspan></tspan></text></g></g><g id="SvgjsG1054"><path id="SvgjsPath1055" d="M305.5 163L305.5 200" stroke="#323232" stroke-width="2" fill="none" marker-end="url(#SvgjsMarker1056)"></path></g><g id="SvgjsG1058" transform="translate(277,197)"><path id="SvgjsPath1059" d="M 0 28.5C 0 -9.5 57 -9.5 57 28.5C 57 66.5 0 66.5 0 28.5Z" stroke="rgba(50,50,50,1)" stroke-width="2" fill-opacity="1" fill="#ffffff"></path><g id="SvgjsG1060"><text id="SvgjsText1061" font-family="&quot;Times New Roman&quot;" text-anchor="middle" font-size="21px" width="37px" fill="#323232" font-weight="400" align="middle" lineHeight="125%" anchor="middle" family="&quot;Times New Roman&quot;" size="21px" weight="400" font-style="" opacity="1" y="9.875" transform="rotate(0)"><tspan id="SvgjsTspan1062" dy="26" x="28.5"><tspan id="SvgjsTspan1063" style="text-decoration:;">9</tspan></tspan></text></g></g><g id="SvgjsG1064"><path id="SvgjsPath1065" d="M290.7883074569178 251.05600748263436L266.58718321898573 285.06679932319923" stroke="#323232" stroke-width="2" fill="none" marker-end="url(#SvgjsMarker1066)"></path></g><g id="SvgjsG1068" transform="translate(236,288)"><path id="SvgjsPath1069" d="M 0 28.5C 0 -9.5 57 -9.5 57 28.5C 57 66.5 0 66.5 0 28.5Z" stroke="rgba(50,50,50,1)" stroke-width="2" fill-opacity="1" fill="#ffffff"></path><g id="SvgjsG1070"><text id="SvgjsText1071" font-family="&quot;Times New Roman&quot;" text-anchor="middle" font-size="21px" width="37px" fill="#323232" font-weight="400" align="middle" lineHeight="125%" anchor="middle" family="&quot;Times New Roman&quot;" size="21px" weight="400" font-style="" opacity="1" y="9.875" transform="rotate(0)"><tspan id="SvgjsTspan1072" dy="26" x="28.5"><tspan id="SvgjsTspan1073" style="text-decoration:;">10</tspan></tspan></text></g></g><g id="SvgjsG1074"><path id="SvgjsPath1075" d="M320.9670353598809 251.01821323630145L338.81867270442865 284.81674089569094" stroke="#323232" stroke-width="2" fill="none" marker-end="url(#SvgjsMarker1076)"></path></g><g id="SvgjsG1078" transform="translate(312,288)"><path id="SvgjsPath1079" d="M 0 28.5C 0 -9.5 57 -9.5 57 28.5C 57 66.5 0 66.5 0 28.5Z" stroke="rgba(50,50,50,1)" stroke-width="2" fill-opacity="1" fill="#ffffff"></path><g id="SvgjsG1080"><text id="SvgjsText1081" font-family="&quot;Times New Roman&quot;" text-anchor="middle" font-size="21px" width="37px" fill="#323232" font-weight="400" align="middle" lineHeight="125%" anchor="middle" family="&quot;Times New Roman&quot;" size="21px" weight="400" font-style="" opacity="1" y="9.875" transform="rotate(0)"><tspan id="SvgjsTspan1082" dy="26" x="28.5"><tspan id="SvgjsTspan1083" style="text-decoration:;">11</tspan></tspan></text></g></g><g id="SvgjsG1084"><path id="SvgjsPath1085" d="M338.5 346L338.5 379.00000190734863" stroke="#323232" stroke-width="2" fill="none" marker-end="url(#SvgjsMarker1086)"></path></g><g id="SvgjsG1088" transform="translate(312,379)"><path id="SvgjsPath1089" d="M 0 28.5C 0 -9.5 57 -9.5 57 28.5C 57 66.5 0 66.5 0 28.5Z" stroke="rgba(50,50,50,1)" stroke-width="2" fill-opacity="1" fill="#ffffff"></path><g id="SvgjsG1090"><text id="SvgjsText1091" font-family="&quot;Times New Roman&quot;" text-anchor="middle" font-size="21px" width="37px" fill="#323232" font-weight="400" align="middle" lineHeight="125%" anchor="middle" family="&quot;Times New Roman&quot;" size="21px" weight="400" font-style="" opacity="1" y="9.875" transform="rotate(0)"><tspan id="SvgjsTspan1092" dy="26" x="28.5"><tspan id="SvgjsTspan1093" style="text-decoration:;">12</tspan></tspan></text></g></g><g id="SvgjsG1094" transform="translate(410,25)"><path id="SvgjsPath1095" d="M 0 28.5C 0 -9.5 57 -9.5 57 28.5C 57 66.5 0 66.5 0 28.5Z" stroke="rgba(50,50,50,1)" stroke-width="2" fill-opacity="1" fill="#ffffff"></path><g id="SvgjsG1096"><text id="SvgjsText1097" font-family="&quot;Times New Roman&quot;" text-anchor="middle" font-size="21px" width="37px" fill="#323232" font-weight="400" align="middle" lineHeight="125%" anchor="middle" family="&quot;Times New Roman&quot;" size="21px" weight="400" font-style="" opacity="1" y="9.875" transform="rotate(0)"><tspan id="SvgjsTspan1098" dy="26" x="28.5"><tspan id="SvgjsTspan1099" style="text-decoration:;">2</tspan></tspan></text></g></g><g id="SvgjsG1100"><path id="SvgjsPath1101" d="M436.5 83L436.5 116.00000190734863" stroke="#323232" stroke-width="2" fill="none" marker-end="url(#SvgjsMarker1102)"></path></g><g id="SvgjsG1104" transform="translate(410,116)"><path id="SvgjsPath1105" d="M 0 28.5C 0 -9.5 57 -9.5 57 28.5C 57 66.5 0 66.5 0 28.5Z" stroke="rgba(50,50,50,1)" stroke-width="2" fill-opacity="1" fill="#ffffff"></path><g id="SvgjsG1106"><text id="SvgjsText1107" font-family="&quot;Times New Roman&quot;" text-anchor="middle" font-size="21px" width="37px" fill="#323232" font-weight="400" align="middle" lineHeight="125%" anchor="middle" family="&quot;Times New Roman&quot;" size="21px" weight="400" font-style="" opacity="1" y="9.875" transform="rotate(0)"><tspan id="SvgjsTspan1108" dy="26" x="28.5"><tspan id="SvgjsTspan1109" style="text-decoration:;">3</tspan></tspan></text></g></g><g id="SvgjsG1110" transform="translate(526,25)"><path id="SvgjsPath1111" d="M 0 28.5C 0 -9.5 57 -9.5 57 28.5C 57 66.5 0 66.5 0 28.5Z" stroke="rgba(50,50,50,1)" stroke-width="2" fill-opacity="1" fill="#ffffff"></path><g id="SvgjsG1112"><text id="SvgjsText1113" font-family="&quot;Times New Roman&quot;" text-anchor="middle" font-size="21px" width="37px" fill="#323232" font-weight="400" align="middle" lineHeight="125%" anchor="middle" family="&quot;Times New Roman&quot;" size="21px" weight="400" font-style="" opacity="1" y="9.875" transform="rotate(0)"><tspan id="SvgjsTspan1114" dy="26" x="28.5"><tspan id="SvgjsTspan1115" style="text-decoration:;">7</tspan></tspan></text></g></g><g id="SvgjsG1116" transform="translate(642,25)"><path id="SvgjsPath1117" d="M 0 28.5C 0 -9.5 57 -9.5 57 28.5C 57 66.5 0 66.5 0 28.5Z" stroke="rgba(50,50,50,1)" stroke-width="2" fill-opacity="1" fill="#ffffff"></path><g id="SvgjsG1118"><text id="SvgjsText1119" font-family="&quot;Times New Roman&quot;" text-anchor="middle" font-size="21px" width="37px" fill="#323232" font-weight="400" align="middle" lineHeight="125%" anchor="middle" family="&quot;Times New Roman&quot;" size="21px" weight="400" font-style="" opacity="1" y="9.875" transform="rotate(0)"><tspan id="SvgjsTspan1120" dy="26" x="28.5"><tspan id="SvgjsTspan1121" style="text-decoration:;">8</tspan></tspan></text></g></g><g id="SvgjsG1122" transform="translate(385,427)"><path id="SvgjsPath1123" d="M 0 24.5L 24.5 0L 24.5 16.17L 314 16.17L 314 32.830000000000005L 24.5 32.830000000000005L 24.5 49L 0 24.5Z" stroke="rgba(50,50,50,1)" stroke-width="2" fill-opacity="1" fill="#ffffff"></path><g id="SvgjsG1124"><text id="SvgjsText1125" font-family="微软雅黑" text-anchor="middle" font-size="13px" width="314px" fill="#323232" font-weight="400" align="middle" lineHeight="125%" anchor="middle" family="微软雅黑" size="13px" weight="400" font-style="" opacity="1" y="13.875" transform="rotate(0)"></text></g></g><g id="SvgjsG1126" transform="translate(25,97)"><path id="SvgjsPath1127" d="M 32.5 0L 65 32.5L 43.550000000000004 32.5L 43.550000000000004 355.5L 21.45 355.5L 21.45 32.5L 0 32.5L 32.5 0Z" stroke="rgba(50,50,50,1)" stroke-width="2" fill-opacity="1" fill="#ffffff"></path><g id="SvgjsG1128"><text id="SvgjsText1129" font-family="微软雅黑" text-anchor="middle" font-size="13px" width="91px" fill="#323232" font-weight="400" align="middle" lineHeight="125%" anchor="middle" family="微软雅黑" size="13px" weight="400" font-style="" opacity="1" y="184.9" transform="rotate(0)"></text></g></g></svg>